<svg width="330" height="303" viewBox="0 0 330 303" fill="none" xmlns="http://www.w3.org/2000/svg">
<mask id="mask0_1_151" style="mask-type:luminance" maskUnits="userSpaceOnUse" x="0" y="0" width="330" height="288">
<path d="M0 0H329.766V287.92H0V0Z" fill="#E2D3F5"/>
</mask>
<g mask="url(#mask0_1_151)">
<path fill-rule="evenodd" clip-rule="evenodd" d="M83.7781 282.56C43.3835 268.976 8.34487 235.218 1.16954 193.304C-6.00579 151.39 20.4984 104.145 62.1436 95.059C81.835 90.7606 103.09 94.5999 121.902 87.3848C157.383 73.7773 169.441 27.7406 202.222 8.53987C233.804 -9.95709 277.104 3.38402 300.634 31.3807C324.161 59.3773 331.026 98.0083 329.585 134.511C327.466 188.139 304.618 245.975 255.847 268.651C214.749 287.759 127.857 293.175 83.7781 282.56Z" fill="#E2D3F5"/>
</g>
<path fill-rule="evenodd" clip-rule="evenodd" d="M35 273.312C43.9002 288.049 62.2374 293.581 78.9494 293.23C95.6592 292.878 111.999 287.898 128.685 286.888C155.13 285.292 181.046 293.669 207.041 298.976C233.038 304.281 261.451 306.174 284.635 292.824C290.311 289.557 295.788 285.094 298.086 278.775C300.384 272.458 298.307 264.072 292.326 261.461C290.008 260.451 287.429 260.388 284.916 260.338C229.223 259.263 173.53 258.188 117.837 257.11C89.4877 256.562 58.2363 257.065 36.9692 276.604" fill="#BEADD9"/>
<path fill-rule="evenodd" clip-rule="evenodd" d="M274.904 107.205C271.478 110.477 270.174 115.57 273.443 119.501C276.52 123.2 282.472 123.985 286.315 121.036C295.593 113.916 285.922 100.779 275.911 103.498C274.058 104.001 274.52 106.629 276.352 106.733C279.278 106.898 282.411 107.01 284.751 109.051C287.261 111.24 287.318 114.946 285.257 117.465C279.799 124.136 270.323 114.313 276.053 108.348C276.777 107.596 275.661 106.483 274.904 107.205Z" fill="#3A3A3A" fill-opacity="0.5"/>
<path fill-rule="evenodd" clip-rule="evenodd" d="M51.6684 74.8444C48.2232 73.2964 43.9843 73.6541 40.8509 75.755C37.7175 77.856 35.7965 81.6307 35.9492 85.3881C36.0691 88.3237 37.2466 91.6649 35.3691 93.9349C33.9169 95.6868 31.3265 95.8515 29.2463 96.7882C25.2908 98.566 23.3218 103.767 25.1208 107.696C26.0933 109.823 28.023 111.781 27.6545 114.088C27.4168 115.582 26.2241 116.763 24.9049 117.516C23.5835 118.266 22.1051 118.695 20.7379 119.359C15.7577 121.783 12.7333 127.413 12.875 132.925C13.019 138.436 16.0695 143.666 20.4436 147.054C24.8199 150.443 30.3976 152.089 35.9382 152.295C41.492 152.501 47.3009 151.206 51.5376 147.633C54.7189 144.949 56.7948 141.19 58.3255 137.332C61.2387 129.998 62.4183 121.991 61.7467 114.135C61.0468 105.983 58.3975 98.0826 57.8174 89.9217C57.6234 87.1876 57.6626 84.4168 57.0499 81.7434C56.4372 79.0701 55.0613 76.4272 52.7042 75.007" fill="#3A3A3A"/>
<path fill-rule="evenodd" clip-rule="evenodd" d="M50.4057 75.8999C53.5609 69.3781 59.8342 64.4326 66.9426 62.865C71.308 61.9023 76.0986 62.2276 79.9341 64.5128C83.7718 66.798 86.4233 71.2557 85.8389 75.6657C85.4769 78.3911 83.9898 80.8237 83.0457 83.4081C82.1015 85.9947 81.7919 89.1472 83.5472 91.272C85.1215 93.1799 87.821 93.6504 89.971 94.8841C93.0411 96.649 94.9708 100.209 94.7681 103.73C94.5653 107.251 92.2365 110.568 88.9832 111.971C92.2147 112.344 95.2521 114.142 97.1208 116.787C98.9917 119.434 99.6633 122.883 98.9219 126.034C97.8578 130.548 94.1684 134.002 90.1999 136.441C84.6876 139.83 78.2943 141.794 71.8182 142.085C64.9453 142.395 57.3331 140.372 53.5936 134.628C51.1405 130.858 50.7655 126.153 50.4907 121.669C49.66 108.136 49.0908 94.5871 48.5217 81.0405C48.4301 78.8615 48.3407 76.6479 48.8575 74.5274" fill="#3A3A3A"/>
<path fill-rule="evenodd" clip-rule="evenodd" d="M73.5289 137.045L135.148 160.014L129.265 135.271L145.289 131.221C145.289 131.221 162.526 179.59 150.555 180.885C129.598 183.153 97.8895 174.901 97.8895 174.901L73.5289 137.045Z" fill="#3A3A3A" fill-opacity="0.5"/>
<path fill-rule="evenodd" clip-rule="evenodd" d="M68.1423 242.617C68.1423 242.617 142.583 161.825 192.837 179.463C243.091 197.103 264.309 279.391 264.309 279.391L224.282 278.745C224.282 278.745 192.671 216.595 177.246 219.002C161.819 221.413 114.179 280.568 114.179 280.568L68.1423 242.617Z" fill="#3A3A3A" fill-opacity="0.5"/>
<path fill-rule="evenodd" clip-rule="evenodd" d="M91.6936 193.569L94.7833 240.971C78.737 260.589 22.8746 235.226 22.8746 235.226L22.2226 215.407L20.9252 168.202C22.2117 149.404 39.7714 140.179 39.7714 140.179C47.0303 136.58 58.1007 134.537 68.0743 135.029C78.4862 135.539 81.0592 140.497 85.3483 149.944C88.8131 157.576 98.2176 170.01 91.6936 193.569Z" fill="#3A3A3A" fill-opacity="0.5"/>
<path fill-rule="evenodd" clip-rule="evenodd" d="M33.3151 244.156C33.3151 244.156 24.7719 278.734 50.8115 284.185C76.8511 289.633 172.623 276.884 197.568 279.066C222.513 281.242 293.454 285.36 293.454 285.36L298.648 244.297C298.648 244.297 188.251 239.035 175.774 242.12C163.297 245.201 33.3151 244.156 33.3151 244.156Z" fill="#3A3A3A" fill-opacity="0.5"/>
<path fill-rule="evenodd" clip-rule="evenodd" d="M45.7998 183.705C45.7998 183.705 37.9914 229.459 49.003 228.331C85.2233 224.628 106.791 224.13 106.791 224.13L112.794 236.523C112.933 238.635 44.2015 258.198 33.1572 251.73C25.3598 247.164 12.9374 234.862 18.5762 198.099L19.9085 185.775L45.7998 183.705Z" fill="#3A3A3A"/>
<path fill-rule="evenodd" clip-rule="evenodd" d="M78.4817 249.39L78.4075 246.323L123.869 239.94L135.936 197.982L186.297 196.767L172.708 242.181L78.4817 249.39Z" fill="#3A3A3A" fill-opacity="0.5"/>
<path fill-rule="evenodd" clip-rule="evenodd" d="M160.201 217.868C160.251 219.914 158.622 221.616 156.564 221.666C154.505 221.714 152.796 220.094 152.746 218.048C152.695 216.003 154.324 214.301 156.383 214.251C158.441 214.203 160.151 215.821 160.201 217.868Z" fill="#3A3A3A"/>
<path fill-rule="evenodd" clip-rule="evenodd" d="M161.693 217.832C161.763 220.698 159.482 223.079 156.6 223.148C153.717 223.217 151.323 220.949 151.253 218.083C151.183 215.217 153.464 212.836 156.347 212.769C159.229 212.7 161.624 214.967 161.693 217.832Z" fill="#3A3A3A"/>
<path fill-rule="evenodd" clip-rule="evenodd" d="M25.877 153.358C25.877 153.358 17.4275 161.424 15.5392 191.947L48.238 188.35C48.238 188.35 53.6871 136.364 25.877 153.358Z" fill="#3A3A3A"/>
<path fill-rule="evenodd" clip-rule="evenodd" d="M265.906 61.5719C265.906 61.5719 277.498 87.4552 280.729 86.0979C283.963 84.7428 313.899 66.2746 313.899 66.2746C313.899 66.2746 301.629 43.1015 299.076 41.7486C296.523 40.3978 265.906 61.5719 265.906 61.5719Z" fill="#3A3A3A" fill-opacity="0.5"/>
<path fill-rule="evenodd" clip-rule="evenodd" d="M299.076 41.7495C299.222 41.8037 298.369 44.4596 296.871 48.7049C295.375 52.9523 293.232 58.7911 290.803 65.2153C290.742 65.3735 290.681 65.5318 290.626 65.6793L290.463 66.1107L290.003 66.037C283.298 64.9508 277.262 63.91 272.908 63.1035C268.553 62.2969 265.88 61.7246 265.906 61.5728C265.93 61.421 268.647 61.7181 273.034 62.323C277.421 62.93 283.479 63.8428 290.186 64.9226L289.564 65.2825C289.619 65.135 289.678 64.9768 289.739 64.8185C292.17 58.3943 294.431 52.5989 296.121 48.4252C297.811 44.2493 298.93 41.6953 299.076 41.7495Z" fill="#3A3A3A"/>
<path fill-rule="evenodd" clip-rule="evenodd" d="M276.92 83.0584C276.615 82.9912 277.516 78.7395 278.933 73.5663C280.353 68.3909 281.744 64.2736 282.043 64.369C282.341 64.4644 281.441 68.7162 280.03 73.8633C278.619 79.0083 277.226 83.1256 276.92 83.0584Z" fill="#3A3A3A"/>
<path fill-rule="evenodd" clip-rule="evenodd" d="M311.923 61.1261C311.876 61.434 307.698 61.0329 302.593 60.2264C297.489 59.4242 293.391 58.5222 293.439 58.2143C293.49 57.9065 297.665 58.3076 302.772 59.1119C307.874 59.9163 311.971 60.8183 311.923 61.1261Z" fill="#3A3A3A"/>
<path fill-rule="evenodd" clip-rule="evenodd" d="M42.2532 89.3788L42.9924 99.0682C42.9924 99.0682 34.7065 100.18 37.0701 107.695C39.4316 115.21 45.0988 111.921 45.0988 111.921C45.0988 111.921 46.5161 131.178 66.3565 125.073C82.1456 120.214 81.1796 99.8834 79.1757 82.5513C78.3995 75.8366 72.0106 71.2206 65.3382 72.5128L53.4109 74.824C46.5183 76.1574 41.7212 82.4147 42.2532 89.3788Z" fill="#3A3A3A"/>
<path fill-rule="evenodd" clip-rule="evenodd" d="M42.9931 107.111L48.3397 135.455C49.5433 141.843 55.8755 145.928 62.2317 144.421C68.1212 143.022 71.8935 137.301 70.8359 131.373L67.9337 115.127L42.9931 107.111Z" fill="#3A3A3A"/>
<path fill-rule="evenodd" clip-rule="evenodd" d="M64.9377 107.431C65.014 107.377 65.1753 107.683 65.5373 107.724C65.8905 107.761 66.4291 107.396 66.56 106.627C66.7409 105.864 66.6406 104.86 66.5316 103.698C66.4378 102.449 66.3463 101.213 66.2503 99.9207C65.9123 94.5567 65.8905 90.1923 66.2045 90.1727C66.5185 90.1532 67.0462 94.4852 67.3842 99.8492C67.4496 101.146 67.5128 102.382 67.5761 103.633C67.6219 104.78 67.6655 105.913 67.3297 106.852C67.068 107.832 66.0541 108.439 65.4217 108.149C64.8156 107.843 64.8962 107.425 64.9377 107.431Z" fill="#3A3A3A"/>
<path fill-rule="evenodd" clip-rule="evenodd" d="M71.3739 123.095C71.4633 123.199 70.6739 124.064 69.0429 124.997C67.4293 125.927 64.9087 126.844 62.0064 126.902C59.1042 126.965 56.5442 126.157 54.8936 125.294C53.2255 124.431 52.4013 123.6 52.4841 123.492C52.6302 123.177 56.4984 125.907 61.9824 125.773C67.4664 125.677 71.2169 122.787 71.3739 123.095Z" fill="#3A3A3A"/>
<path fill-rule="evenodd" clip-rule="evenodd" d="M67.4982 111.407C67.6094 111.488 67.3543 112.123 66.4756 112.736C65.6274 113.343 64.0661 113.838 62.4264 113.324C60.7932 112.793 59.8141 111.485 59.4805 110.501C59.1273 109.493 59.2908 108.827 59.4282 108.829C59.6004 108.814 59.7356 109.402 60.2066 110.161C60.6623 110.913 61.5389 111.85 62.7731 112.251C64.0116 112.641 65.2719 112.389 66.0853 112.04C66.9117 111.696 67.3674 111.297 67.4982 111.407Z" fill="#3A3A3A"/>
<path fill-rule="evenodd" clip-rule="evenodd" d="M42.3692 108.635C42.3714 108.767 41.8851 108.999 41.0238 108.747C40.6117 108.62 40.0666 108.253 39.8333 107.618C39.7155 107.308 39.6632 106.928 39.781 106.532C39.8747 106.143 40.2476 105.725 40.6597 105.591C41.2223 105.363 42.0094 105.497 42.3736 106.113L41.4098 106.612C40.7796 105.025 40.4744 103.808 40.7099 103.704C40.9432 103.6 41.6453 104.643 42.4041 106.174L41.4403 106.673C41.4185 106.64 41.2593 106.571 41.0631 106.646C40.8516 106.709 40.7556 106.961 40.8276 107.293C40.8974 107.609 41.1089 107.845 41.3662 108.025C41.8873 108.368 42.3823 108.468 42.3692 108.635Z" fill="#3A3A3A"/>
<path fill-rule="evenodd" clip-rule="evenodd" d="M72.8836 95.0383C72.5784 95.1077 72.1728 94.4681 71.9766 93.6116C71.7825 92.7552 71.8741 92.0072 72.1793 91.9378C72.4846 91.8684 72.8902 92.508 73.0842 93.3645C73.2805 94.2209 73.1889 94.9689 72.8836 95.0383Z" fill="#3A3A3A"/>
<path fill-rule="evenodd" clip-rule="evenodd" d="M56.0857 96.5913C55.7826 96.6759 55.3443 96.0471 55.1045 95.1907C54.8646 94.3321 54.9169 93.5711 55.22 93.4865C55.5209 93.4041 55.9592 94.0307 56.1991 94.8893C56.4389 95.7457 56.3888 96.5067 56.0857 96.5913Z" fill="#3A3A3A"/>
<path fill-rule="evenodd" clip-rule="evenodd" d="M57.6456 89.5364C57.5497 89.8421 56.6557 89.8313 55.6657 90.1066C54.667 90.3494 53.893 90.7961 53.6597 90.5749C53.4176 90.3885 54.0369 89.3608 55.3779 89.0139C56.7145 88.6605 57.7634 89.2545 57.6456 89.5364Z" fill="#3A3A3A"/>
<path fill-rule="evenodd" clip-rule="evenodd" d="M74.7979 86.8327C74.6714 87.1276 73.688 86.9823 72.5367 87.0951C71.3832 87.1818 70.4391 87.4962 70.2646 87.2273C70.0771 86.9866 70.9711 86.0955 72.4386 85.972C73.9061 85.8397 74.9396 86.5639 74.7979 86.8327Z" fill="#3A3A3A"/>
<path fill-rule="evenodd" clip-rule="evenodd" d="M42.9931 99.0686C48.5315 93.7003 50.1582 84.7567 51.6606 77.2138C56.7891 80.9278 63.843 81.8406 69.7566 79.5575C71.6122 81.7257 73.7927 83.6206 76.2022 85.1557C76.889 85.5936 77.7002 86.0186 78.4808 85.7844C79.4097 85.5069 79.824 84.4467 80.0442 83.5057C80.7529 80.4985 80.779 77.2788 79.7237 74.3713C78.6683 71.4682 76.4551 68.9141 73.5572 67.7997C70.4609 66.6072 66.9764 67.1254 63.7602 67.9536C58.9173 69.2025 54.2488 71.1213 49.9314 73.6363C45.6925 76.1037 41.6237 79.3711 39.8248 83.9133C38.028 88.4577 38.0368 97.2908 42.3694 99.5868" fill="#3A3A3A"/>
<path fill-rule="evenodd" clip-rule="evenodd" d="M65.5968 112.459C65.8629 113.987 64.5524 115.475 62.76 115.104C60.9676 114.716 60.3811 112.829 61.2489 111.539C62.1146 110.232 63.2702 109.458 63.9396 109.579C64.6003 109.74 65.3417 110.915 65.5968 112.459Z" fill="#3A3A3A"/>
<path fill-rule="evenodd" clip-rule="evenodd" d="M58.6953 103.462C58.9701 104.991 57.0708 106.608 54.4215 106.725C51.7722 106.849 49.7313 105.407 49.8686 103.861C50.0016 102.302 51.9248 101.194 54.1642 101.086C56.4036 100.99 58.4206 101.923 58.6953 103.462Z" fill="#3A3A3A"/>
<path fill-rule="evenodd" clip-rule="evenodd" d="M79.6731 101.76C79.9849 103.282 78.3212 104.901 75.9226 105.023C73.5219 105.146 71.7012 103.705 71.8538 102.159C72.0042 100.602 73.6963 99.4897 75.6304 99.3834C77.5667 99.2924 79.3634 100.225 79.6731 101.76Z" fill="#3A3A3A"/>
<path fill-rule="evenodd" clip-rule="evenodd" d="M42.7654 124.718C42.4471 124.711 42.2704 121.602 42.0698 117.784C41.8758 113.964 41.7297 110.855 42.0458 110.816C42.3511 110.775 43.0075 113.858 43.2037 117.726C43.4065 121.594 43.0729 124.727 42.7654 124.718Z" fill="#3A3A3A"/>
<path fill-rule="evenodd" clip-rule="evenodd" d="M75.6847 136.839C70.3229 134.72 111.565 149.945 111.565 149.945L107.381 177.996L91.694 172.88L75.6847 136.839Z" fill="#3A3A3A" fill-opacity="0.5"/>
<path fill-rule="evenodd" clip-rule="evenodd" d="M51.1433 73.3824C52.4407 71.4355 52.8681 68.9378 52.2903 66.6742C51.8149 64.8096 50.3998 62.9602 48.4679 62.8626C47.3711 62.8062 46.307 63.3374 45.5002 64.0811C43.5072 65.9154 42.9948 69.1459 44.3227 71.5005C45.6507 73.8551 48.6881 75.1061 51.3025 74.3755" fill="#3A3A3A"/>
<path fill-rule="evenodd" clip-rule="evenodd" d="M297.542 253.034C297.542 253.034 310.956 233.911 309.321 241.151C307.685 248.39 294.059 280.567 294.059 280.567L297.542 253.034Z" fill="#3A3A3A" fill-opacity="0.5"/>
<path fill-rule="evenodd" clip-rule="evenodd" d="M102.981 224.133C102.981 224.133 120.706 218.604 120.097 220.423C119.489 222.24 116.473 222.307 113.458 225.241C113.458 225.241 133.272 225.453 132.319 227.077C131.366 228.699 118.469 229.109 118.39 229.384C118.314 229.661 132.498 230.006 132.18 231.507C131.859 233.009 118.678 232.643 118.678 232.643C118.678 232.643 130.898 233.935 130.647 235.552C130.396 237.172 119.132 236.005 119.132 236.005C119.132 236.005 128.56 237.076 128.314 238.542C128.165 239.435 100.708 239.637 100.651 240.294C100.621 240.639 102.981 224.133 102.981 224.133Z" fill="#3A3A3A"/>
<path fill-rule="evenodd" clip-rule="evenodd" d="M130.421 136.839C130.421 136.839 119.658 121.878 121.577 121.887C123.496 121.894 124.497 124.71 128.223 126.637C128.223 126.637 122.277 107.931 124.115 108.323C125.958 108.716 130.349 120.723 130.637 120.71C130.923 120.697 126.847 107.243 128.376 107.079C129.902 106.914 133.646 119.428 133.646 119.428C133.646 119.428 131.082 107.532 132.7 107.265C134.32 106.998 136.705 117.958 136.705 117.958C136.705 117.958 134.797 108.755 136.269 108.529C137.165 108.393 145.29 131.223 145.29 131.223C145.076 131.223 130.421 136.839 130.421 136.839Z" fill="#3A3A3A" fill-opacity="0.5"/>
<path fill-rule="evenodd" clip-rule="evenodd" d="M31.159 177.996C31.2768 177.985 31.678 178.694 31.6998 180.108C31.6954 180.793 31.4141 181.788 30.5376 182.408C30.1189 182.718 29.4953 182.939 28.8499 182.799C28.211 182.666 27.7291 182.235 27.3824 181.858C26.6803 181.045 26.2245 180.563 25.505 180.479C24.8159 180.37 24.1945 180.6 23.7955 180.962C22.9581 181.723 22.9843 182.601 22.8142 182.59C22.7008 182.662 22.2669 181.652 23.2089 180.416C23.669 179.826 24.5957 179.345 25.6227 179.444C26.1308 179.488 26.6737 179.668 27.1316 180.015C27.5786 180.351 27.897 180.756 28.211 181.09C29.3405 182.621 30.8189 181.127 30.8995 180.026C31.0783 178.863 30.9737 178.009 31.159 177.996Z" fill="#3A3A3A"/>
<path fill-rule="evenodd" clip-rule="evenodd" d="M40.8413 169.687C40.7694 169.593 41.1706 168.882 42.3742 168.13C42.9651 167.777 43.966 167.499 44.9538 167.918C45.4378 168.113 45.9524 168.527 46.1683 169.149C46.3864 169.76 46.2664 170.396 46.1247 170.886C45.7889 171.903 45.6145 172.542 45.9154 173.199C46.1792 173.839 46.7004 174.246 47.2215 174.396C48.3074 174.71 49.0488 174.231 49.1294 174.383C49.2494 174.441 48.6061 175.335 47.0558 175.179C46.31 175.096 45.4139 174.561 44.9647 173.635C44.7379 173.18 44.6114 172.625 44.6703 172.057C44.727 171.501 44.908 171.02 45.0301 170.58C45.7606 168.826 43.7065 168.347 42.7166 168.852C41.6285 169.305 40.9482 169.838 40.8413 169.687Z" fill="#3A3A3A"/>
<path fill-rule="evenodd" clip-rule="evenodd" d="M40.1876 148.986C40.1157 148.89 40.5169 148.181 41.7183 147.429C42.3092 147.076 43.3123 146.796 44.3001 147.217C44.7841 147.412 45.2987 147.826 45.5124 148.448C45.7326 149.059 45.6127 149.695 45.471 150.185C45.1352 151.202 44.9586 151.841 45.2617 152.496C45.5255 153.138 46.0466 153.545 46.5656 153.695C47.6537 154.009 48.395 153.53 48.4757 153.682C48.5956 153.74 47.9524 154.634 46.3999 154.478C45.6541 154.393 44.7601 153.858 44.311 152.934C44.0842 152.479 43.9577 151.924 44.0144 151.356C44.0711 150.8 44.2543 150.319 44.3764 149.879C45.1047 148.125 43.0528 147.646 42.0629 148.149C40.9726 148.604 40.2945 149.138 40.1876 148.986Z" fill="#3A3A3A"/>
<path fill-rule="evenodd" clip-rule="evenodd" d="M60.8333 175.947C60.7439 176.025 60.0003 175.689 59.1412 174.565C58.7357 174.01 58.3693 173.043 58.7029 172.027C58.8556 171.53 59.2263 170.984 59.8303 170.717C60.4234 170.446 61.0688 170.511 61.5725 170.609C62.6213 170.851 63.2776 170.971 63.9078 170.615C64.5271 170.296 64.889 169.744 64.9959 169.217C65.2161 168.111 64.671 167.419 64.8149 167.326C64.8651 167.202 65.8158 167.762 65.7918 169.312C65.7743 170.058 65.3164 170.99 64.429 171.517C63.9929 171.782 63.4499 171.955 62.8743 171.946C62.3117 171.94 61.8145 171.801 61.3632 171.719C59.5424 171.148 59.2415 173.226 59.8324 174.16C60.3819 175.201 60.975 175.827 60.8333 175.947Z" fill="#3A3A3A"/>
<path fill-rule="evenodd" clip-rule="evenodd" d="M74.9106 197.596C74.9739 197.696 74.5225 198.373 73.2687 199.038C72.6516 199.348 71.6333 199.55 70.6783 199.06C70.2095 198.83 69.7276 198.379 69.5575 197.742C69.3852 197.117 69.5531 196.493 69.7319 196.016C70.1397 195.023 70.3621 194.398 70.1113 193.724C69.8933 193.065 69.4049 192.62 68.8968 192.432C67.8371 192.039 67.063 192.464 66.9932 192.308C66.8776 192.239 67.5863 191.395 69.1214 191.666C69.8584 191.803 70.711 192.401 71.0904 193.358C71.2823 193.828 71.3695 194.39 71.2692 194.953C71.1711 195.502 70.953 195.97 70.7982 196.4C69.9413 198.093 71.9539 198.726 72.9787 198.292C74.0973 197.919 74.8147 197.438 74.9106 197.596Z" fill="#3A3A3A"/>
<path fill-rule="evenodd" clip-rule="evenodd" d="M91.4838 163.45C91.547 163.55 91.0957 164.229 89.8419 164.892C89.2248 165.2 88.2065 165.404 87.2514 164.914C86.7826 164.684 86.3007 164.233 86.1307 163.598C85.9584 162.971 86.1263 162.347 86.3051 161.87C86.7128 160.879 86.9353 160.254 86.6845 159.578C86.4664 158.919 85.978 158.474 85.47 158.286C84.4102 157.893 83.6362 158.316 83.5664 158.162C83.4508 158.093 84.1595 157.249 85.6945 157.52C86.4316 157.657 87.2841 158.255 87.6635 159.212C87.8576 159.682 87.9426 160.244 87.8423 160.807C87.7442 161.356 87.5262 161.824 87.3714 162.253C86.5144 163.949 88.527 164.578 89.5519 164.146C90.6705 163.773 91.3878 163.292 91.4838 163.45Z" fill="#3A3A3A"/>
<path fill-rule="evenodd" clip-rule="evenodd" d="M102.791 158.255C102.863 158.162 103.657 158.355 104.71 159.305C105.209 159.777 105.748 160.662 105.606 161.722C105.547 162.236 105.283 162.841 104.738 163.214C104.204 163.587 103.559 163.641 103.044 163.637C101.969 163.589 101.302 163.591 100.748 164.055C100.198 164.482 99.9433 165.089 99.9346 165.629C99.9237 166.755 100.587 167.336 100.462 167.453C100.436 167.585 99.3982 167.208 99.1343 165.679C99.0166 164.942 99.2935 163.942 100.07 163.264C100.449 162.923 100.953 162.655 101.52 162.557C102.074 162.464 102.588 162.509 103.048 162.507C104.941 162.737 104.858 160.643 104.104 159.829C103.371 158.906 102.673 158.399 102.791 158.255Z" fill="#3A3A3A"/>
<path fill-rule="evenodd" clip-rule="evenodd" d="M57.0473 215.253C57.1105 215.352 56.6592 216.029 55.4054 216.694C54.7883 217.002 53.77 217.206 52.8149 216.716C52.3461 216.484 51.8642 216.035 51.6941 215.398C51.5219 214.773 51.6898 214.149 51.8664 213.672C52.2763 212.679 52.4988 212.055 52.248 211.38C52.0299 210.721 51.5415 210.277 51.0335 210.088C49.9716 209.696 49.1975 210.121 49.1299 209.965C49.0143 209.895 49.7208 209.052 51.258 209.323C51.9951 209.459 52.8476 210.058 53.227 211.014C53.4189 211.484 53.504 212.046 53.4058 212.61C53.3077 213.158 53.0897 213.627 52.9349 214.054C52.0779 215.749 54.0905 216.38 55.1132 215.949C56.234 215.576 56.9513 215.094 57.0473 215.253Z" fill="#3A3A3A"/>
<path fill-rule="evenodd" clip-rule="evenodd" d="M81.5769 182.394C81.4788 182.461 80.7788 182.041 80.0593 180.822C79.7213 180.226 79.4749 179.22 79.9262 178.251C80.1377 177.776 80.5717 177.277 81.2018 177.082C81.8233 176.885 82.4578 177.024 82.9462 177.18C83.958 177.546 84.5947 177.739 85.2641 177.461C85.9161 177.216 86.3435 176.711 86.5114 176.202C86.8602 175.129 86.4002 174.378 86.555 174.305C86.6204 174.185 87.497 174.851 87.2898 176.388C87.183 177.128 86.6182 178.001 85.674 178.42C85.2096 178.63 84.6492 178.739 84.0779 178.663C83.5219 178.589 83.0422 178.394 82.6061 178.257C80.866 177.479 80.3187 179.504 80.7963 180.503C81.2171 181.6 81.7317 182.292 81.5769 182.394Z" fill="#3A3A3A"/>
<path fill-rule="evenodd" clip-rule="evenodd" d="M85.9793 200.048C85.8834 200.115 85.1813 199.695 84.4617 198.476C84.1259 197.88 83.8773 196.874 84.3309 195.905C84.5402 195.43 84.9741 194.933 85.6065 194.738C86.2279 194.539 86.8602 194.678 87.3487 194.836C88.3604 195.2 88.9993 195.395 89.6666 195.116C90.3185 194.871 90.7459 194.368 90.9138 193.856C91.2627 192.783 90.8048 192.035 90.9574 191.959C91.0228 191.842 91.8994 192.505 91.6944 194.042C91.5876 194.782 91.0207 195.655 90.0765 196.074C89.6142 196.286 89.0517 196.393 88.4804 196.317C87.9243 196.243 87.4468 196.048 87.0085 195.913C85.2685 195.133 84.7212 197.158 85.1987 198.157C85.6195 199.255 86.1363 199.946 85.9793 200.048Z" fill="#3A3A3A"/>
<path fill-rule="evenodd" clip-rule="evenodd" d="M50.477 192.517C50.3592 192.502 50.1259 191.723 50.4159 190.34C50.5707 189.672 51.0657 188.764 52.0557 188.348C52.5332 188.135 53.1895 188.055 53.7892 188.334C54.3845 188.603 54.7595 189.13 55.0146 189.572C55.5183 190.518 55.8585 191.088 56.541 191.329C57.1908 191.585 57.8449 191.493 58.3159 191.227C59.2993 190.667 59.4672 189.807 59.6329 189.852C59.7594 189.809 59.9578 190.891 58.7673 191.89C58.1894 192.365 57.1799 192.634 56.1986 192.311C55.7102 192.159 55.2218 191.864 54.8511 191.426C54.4891 191.001 54.2667 190.535 54.0334 190.141C53.2724 188.404 51.4996 189.538 51.1769 190.594C50.7474 191.689 50.6601 192.547 50.477 192.517Z" fill="#3A3A3A"/>
<path fill-rule="evenodd" clip-rule="evenodd" d="M82.5394 214.313C82.4216 214.297 82.1861 213.519 82.4783 212.136C82.6309 211.468 83.1281 210.559 84.118 210.143C84.5934 209.931 85.2519 209.85 85.8515 210.13C86.4468 210.399 86.8197 210.926 87.077 211.368C87.5807 212.313 87.9208 212.884 88.6033 213.124C89.2509 213.38 89.9073 213.289 90.3783 213.022C91.3617 212.463 91.5296 211.602 91.6931 211.648C91.8196 211.605 92.0202 212.686 90.8275 213.686C90.2496 214.161 89.24 214.43 88.261 214.107C87.7726 213.955 87.2841 213.66 86.9135 213.222C86.5515 212.797 86.3291 212.331 86.0958 211.936C85.3348 210.2 83.5598 211.333 83.2393 212.392C82.8097 213.484 82.7225 214.343 82.5394 214.313Z" fill="#3A3A3A"/>
<path fill-rule="evenodd" clip-rule="evenodd" d="M81.6098 148.284C81.4921 148.269 81.2566 147.488 81.5487 146.107C81.7014 145.439 82.1985 144.528 83.1885 144.114C83.6638 143.902 84.3224 143.822 84.922 144.101C85.5173 144.368 85.8901 144.897 86.1474 145.337C86.6511 146.285 86.9913 146.855 87.6738 147.096C88.3214 147.349 88.9777 147.26 89.4487 146.994C90.4321 146.434 90.6 145.574 90.7636 145.619C90.89 145.574 91.0906 146.655 89.8979 147.655C89.3201 148.132 88.3105 148.399 87.3314 148.078C86.843 147.924 86.3546 147.629 85.9839 147.193C85.6219 146.766 85.3995 146.3 85.1662 145.907C84.4052 144.169 82.6303 145.303 82.3098 146.361C81.8802 147.455 81.793 148.312 81.6098 148.284Z" fill="#3A3A3A"/>
<path fill-rule="evenodd" clip-rule="evenodd" d="M71.1353 223.078C71.0743 223.18 70.2631 223.085 69.0987 222.274C68.5427 221.868 67.8994 221.058 67.906 219.989C67.8994 219.471 68.0848 218.837 68.5798 218.399C69.0616 217.964 69.6962 217.829 70.2064 217.769C71.2792 217.684 71.9399 217.597 72.4327 217.068C72.9233 216.576 73.0999 215.943 73.0411 215.407C72.9102 214.289 72.1798 213.794 72.2888 213.662C72.2975 213.53 73.3747 213.773 73.8282 215.258C74.0397 215.973 73.8893 216.999 73.2046 217.771C72.871 218.154 72.4065 218.486 71.8549 218.651C71.3163 218.814 70.7995 218.833 70.346 218.889C68.438 218.898 68.7847 220.967 69.6351 221.678C70.4768 222.504 71.2334 222.92 71.1353 223.078Z" fill="#3A3A3A"/>
<path fill-rule="evenodd" clip-rule="evenodd" d="M33.1075 158.255C33.21 158.197 33.8663 158.685 34.4638 159.966C34.7407 160.595 34.8868 161.616 34.3417 162.54C34.0866 162.991 33.6068 163.446 32.9592 163.578C32.3203 163.715 31.7033 163.513 31.2323 163.312C30.2598 162.85 29.6449 162.594 28.9536 162.806C28.2799 162.986 27.8067 163.448 27.5887 163.94C27.1351 164.972 27.5189 165.764 27.3575 165.824C27.2834 165.935 26.4744 165.185 26.832 163.676C27.0108 162.952 27.6584 162.139 28.6397 161.813C29.1215 161.649 29.6907 161.594 30.251 161.727C30.7962 161.852 31.2541 162.095 31.6771 162.273C33.3321 163.216 34.0757 161.254 33.6984 160.213C33.3866 159.079 32.9418 158.342 33.1075 158.255Z" fill="#3A3A3A"/>
<path fill-rule="evenodd" clip-rule="evenodd" d="M69.8128 151.722C69.9153 151.664 70.5717 152.152 71.1691 153.433C71.446 154.062 71.5921 155.085 71.047 156.007C70.7919 156.458 70.3122 156.913 69.6646 157.045C69.0257 157.182 68.4086 156.98 67.9376 156.778C66.9651 156.317 66.3502 156.061 65.659 156.273C64.9852 156.453 64.512 156.915 64.294 157.407C63.8404 158.439 64.2242 159.231 64.0628 159.291C63.9887 159.402 63.1797 158.654 63.5373 157.143C63.7161 156.419 64.3638 155.606 65.345 155.282C65.8269 155.116 66.396 155.061 66.9564 155.194C67.5015 155.319 67.9594 155.562 68.3824 155.74C70.0374 156.683 70.781 154.721 70.4038 153.68C70.0919 152.546 69.6471 151.809 69.8128 151.722Z" fill="#3A3A3A"/>
<path fill-rule="evenodd" clip-rule="evenodd" d="M47.1849 190.131C47.1064 190.122 47.1194 189.326 47.2088 187.897C47.2982 186.466 47.464 184.4 47.6929 181.85C48.1486 176.753 48.8682 169.711 49.7121 161.958C49.9039 160.032 50.0021 158.159 49.7361 156.412C49.4897 154.662 48.8072 153.09 47.815 151.813C45.8133 149.235 42.9721 147.895 40.5561 147.321C38.1074 146.737 36.0207 146.766 34.599 146.805C33.1708 146.854 32.377 146.943 32.3638 146.857C32.3509 146.789 33.1206 146.553 34.5619 146.367C35.9989 146.191 38.1358 146.033 40.7327 146.542C43.2905 147.045 46.3912 148.379 48.6393 151.176C49.7579 152.555 50.5559 154.341 50.8372 156.243C51.1403 158.144 51.0356 160.113 50.8416 162.068C49.9955 169.845 49.1517 176.857 48.491 181.937C48.1595 184.476 47.8717 186.529 47.6471 187.943C47.4247 189.361 47.2634 190.139 47.1849 190.131Z" fill="#3A3A3A"/>
<path fill-rule="evenodd" clip-rule="evenodd" d="M48.6404 188.358C48.673 188.668 41.2223 189.707 31.9965 190.676C22.7708 191.65 15.2655 192.185 15.2327 191.873C15.2001 191.565 22.6509 190.524 31.8788 189.555C41.1002 188.584 48.6076 188.046 48.6404 188.358Z" fill="#3A3A3A"/>
<path fill-rule="evenodd" clip-rule="evenodd" d="M94.0561 184.691C93.6833 184.656 95.4865 178.117 93.4281 170.327C91.4984 162.502 86.7754 157.613 87.0894 157.405C87.1766 157.318 88.474 158.385 90.0833 160.553C91.6925 162.708 93.5001 166.045 94.5293 170.05C95.5454 174.054 95.5563 177.844 95.1769 180.502C94.8019 183.171 94.1761 184.726 94.0561 184.691Z" fill="#3A3A3A" fill-opacity="0.5"/>
<path fill-rule="evenodd" clip-rule="evenodd" d="M193.021 99.7887C193.49 102.805 196.636 109.168 199.955 110.046C201.715 110.512 203.023 109.359 204.39 108.422C206.88 106.716 209.34 104.971 211.804 103.225C212.693 102.596 213.221 101.384 212.558 100.37C210.378 97.033 208.199 93.6962 206.019 90.3616C205.441 89.4792 204.109 88.9349 203.147 89.6136C200.424 91.528 197.508 93.3038 195.023 95.5196C193.324 97.0373 195.494 99.6217 197.402 98.5853C200.169 97.0807 202.692 95.0296 205.267 93.2192C204.307 92.9699 203.35 92.7205 202.393 92.4712C204.571 95.8058 206.752 99.1426 208.93 102.477C209.183 101.525 209.434 100.571 209.684 99.6195C208.206 100.667 206.723 101.707 205.249 102.759C204.51 103.286 201.486 106.031 200.683 105.851C199.73 105.638 198.193 102.909 197.591 102.195C196.545 100.959 195.566 99.7908 194.214 98.8759C193.564 98.4336 192.925 99.1621 193.021 99.7887Z" fill="#3A3A3A" fill-opacity="0.5"/>
<path fill-rule="evenodd" clip-rule="evenodd" d="M162.149 130.892C158.723 134.164 157.419 139.257 160.688 143.186C163.763 146.887 169.717 147.671 173.56 144.723C182.838 137.603 173.167 124.466 163.156 127.185C161.303 127.688 161.765 130.315 163.597 130.42C166.523 130.584 169.656 130.697 171.994 132.735C174.506 134.927 174.56 138.632 172.502 141.152C167.044 147.823 157.566 137.999 163.298 132.035C164.02 131.282 162.906 130.17 162.149 130.892Z" fill="#3A3A3A" fill-opacity="0.5"/>
<path fill-rule="evenodd" clip-rule="evenodd" d="M240.995 161.156C239.814 167.257 238.806 173.371 237.866 179.514C237.642 180.99 238.664 181.988 240.138 181.773C245.941 180.934 251.726 180.16 257.452 178.902C258.553 178.66 259 177.311 258.476 176.394C255.232 170.716 251.1 162.804 244.994 159.706C243.448 158.921 241.259 160.618 242.415 162.271C244.231 164.87 246.92 166.819 249.035 169.2C251.471 171.943 253.758 174.894 255.513 178.118C256.006 177.261 256.501 176.405 256.994 175.55C250.997 176.138 245.095 177.211 239.157 178.232C239.938 178.822 240.716 179.412 241.495 180.004C242.21 173.829 242.849 167.665 243.313 161.468C243.414 160.161 241.248 159.853 240.995 161.156Z" fill="#3A3A3A" fill-opacity="0.5"/>
<path fill-rule="evenodd" clip-rule="evenodd" d="M217.008 131.303C217.091 129.392 213.964 128.915 213.604 130.843C212.473 136.903 212.065 143.373 212.019 149.524C212.01 150.805 214.016 151.128 214.309 149.832C215.652 143.854 216.74 137.423 217.008 131.303Z" fill="#3A3A3A" fill-opacity="0.5"/>
<path fill-rule="evenodd" clip-rule="evenodd" d="M299.12 150.133C301.388 150.053 301.303 146.916 299.12 146.69C293.093 146.066 286.726 146.2 280.686 146.634C279.474 146.721 278.992 148.718 280.377 148.911C286.493 149.763 292.945 150.357 299.12 150.133Z" fill="#3A3A3A" fill-opacity="0.5"/>
<path fill-rule="evenodd" clip-rule="evenodd" d="M230.525 71.4185C235.935 74.3195 241.864 77.1468 247.725 79.0222C249.572 79.6141 250.826 76.7543 249.06 75.8741C243.547 73.1249 237.337 71.0044 231.424 69.3003C230.168 68.9403 229.35 70.7876 230.525 71.4185Z" fill="#3A3A3A" fill-opacity="0.5"/>
<path fill-rule="evenodd" clip-rule="evenodd" d="M247.682 120.747C246.313 119.539 244.064 119.305 242.732 120.747C241.385 122.206 241.435 124.209 242.732 125.671C242.824 125.773 242.915 125.877 243.009 125.981C244.235 127.36 246.762 127.318 247.996 125.981C249.224 124.652 249.47 122.321 247.996 121.022C247.891 120.931 247.787 120.84 247.682 120.747Z" fill="#3A3A3A" fill-opacity="0.5"/>
<path fill-rule="evenodd" clip-rule="evenodd" d="M271.435 101.916C267.918 105.071 266.579 109.982 269.935 113.773C273.095 117.339 279.208 118.096 283.153 115.253C292.681 108.387 282.75 95.7191 272.47 98.3409C270.567 98.8259 271.041 101.36 272.922 101.46C275.927 101.619 279.145 101.728 281.547 103.695C284.125 105.807 284.183 109.38 282.067 111.809C276.462 118.242 266.731 108.769 272.615 103.018C273.359 102.292 272.212 101.22 271.435 101.916Z" fill="#7CABFF"/>
<path fill-rule="evenodd" clip-rule="evenodd" d="M47.7508 70.9382C44.3098 69.3985 40.0761 69.7543 36.9465 71.8439C33.8169 73.9334 31.8983 77.6877 32.0507 81.4247C32.1705 84.3444 33.3465 87.6674 31.4714 89.9251C30.021 91.6674 27.4337 91.8313 25.356 92.7629C21.4054 94.5311 19.4388 99.7042 21.2355 103.612C22.2069 105.727 24.1342 107.674 23.7662 109.969C23.5288 111.454 22.3375 112.63 21.0199 113.378C19.7002 114.124 18.2236 114.551 16.8581 115.211C11.8839 117.622 8.86321 123.222 9.00477 128.703C9.1485 134.185 12.1953 139.386 16.5641 142.756C20.935 146.127 26.5059 147.763 32.0398 147.968C37.5868 148.173 43.3886 146.886 47.6201 143.332C50.7976 140.662 52.8709 136.923 54.3997 133.087C57.3093 125.792 58.4876 117.829 57.8168 110.016C57.1177 101.908 54.4716 94.0502 53.8923 85.9336C53.6985 83.2144 53.7377 80.4586 53.1257 77.7998C52.5137 75.141 51.1395 72.5123 48.7853 71.0999" fill="#241352"/>
<path fill-rule="evenodd" clip-rule="evenodd" d="M47.9248 70.7436C51.0324 64.1203 57.211 59.0979 64.2121 57.5059C68.5116 56.5283 73.2299 56.8586 77.0075 59.1793C80.7873 61.5001 83.3987 66.0272 82.8232 70.5058C82.4667 73.2736 81.002 75.7441 80.0721 78.3687C79.1422 80.9955 78.8373 84.1971 80.5661 86.3549C82.1166 88.2926 84.7753 88.7704 86.8929 90.0232C89.9167 91.8156 91.8173 95.431 91.6176 99.0069C91.4179 102.583 89.1242 105.952 85.92 107.376C89.1027 107.755 92.0943 109.58 93.9348 112.267C95.7775 114.955 96.4389 118.458 95.7087 121.658C94.6607 126.242 91.027 129.75 87.1184 132.227C81.6893 135.668 75.3925 137.663 69.0142 137.958C62.2449 138.273 54.7477 136.219 51.0646 130.386C48.6485 126.557 48.2791 121.779 48.0086 117.225C47.1903 103.481 46.6298 89.7216 46.0693 75.9642C45.9791 73.7514 45.891 71.5032 46.4 69.3498" fill="#241352"/>
<path fill-rule="evenodd" clip-rule="evenodd" d="M69 133.69L131.182 156.174L125.246 131.954L141.417 127.989C141.417 127.989 158.811 175.336 146.731 176.603C125.582 178.823 93.5834 170.745 93.5834 170.745L69 133.69Z" fill="#FFAFA7"/>
<path fill-rule="evenodd" clip-rule="evenodd" d="M65 237.9C65 237.9 138.997 156.815 188.953 174.517C238.908 192.221 260 274.808 260 274.808L220.211 274.159C220.211 274.159 188.788 211.783 173.455 214.199C158.119 216.618 110.763 275.989 110.763 275.989L65 237.9Z" fill="#5F2D90"/>
<path fill-rule="evenodd" clip-rule="evenodd" d="M87.9043 189.365L91 236.576C74.9228 256.114 18.9531 230.853 18.9531 230.853L18.2999 211.114L17 164.1C18.289 145.378 35.8823 136.19 35.8823 136.19C43.1552 132.605 54.2469 130.571 64.2397 131.061C74.6716 131.569 77.2495 136.507 81.5468 145.916C85.0183 153.517 94.4409 165.901 87.9043 189.365Z" fill="#FBC580"/>
<path fill-rule="evenodd" clip-rule="evenodd" d="M30.3377 239.103C30.3377 239.103 21.816 274.926 47.7898 280.573C73.7637 286.218 169.294 273.01 194.176 275.27C219.058 277.525 289.819 281.791 289.819 281.791L295 239.249C295 239.249 184.882 233.797 172.437 236.994C159.991 240.186 30.3377 239.103 30.3377 239.103Z" fill="#6F35A5"/>
<path fill-rule="evenodd" clip-rule="evenodd" d="M41.7539 178.989C41.7539 178.989 33.9162 225.185 44.9692 224.047C81.3258 220.308 102.974 219.804 102.974 219.804L109 232.317C109.14 234.449 40.1496 254.201 29.0638 247.671C21.237 243.061 8.76794 230.64 14.4279 193.522L15.7652 181.08L41.7539 178.989Z" fill="#FFAFA7"/>
<path fill-rule="evenodd" clip-rule="evenodd" d="M75.0742 244.989L75 241.841L120.508 235.291L132.587 192.235L183 190.989L169.397 237.591L75.0742 244.989Z" fill="#9C8BBF"/>
<path fill-rule="evenodd" clip-rule="evenodd" d="M22.297 148.402C22.297 148.402 13.8809 156.467 12 186.989L44.5698 183.392C44.5698 183.392 49.9973 131.409 22.297 148.402Z" fill="#FBC580"/>
<path fill-rule="evenodd" clip-rule="evenodd" d="M262 57.5618C262 57.5618 273.593 84.3399 276.825 82.9357C280.059 81.5338 310 62.4271 310 62.4271C310 62.4271 297.728 38.4529 295.175 37.0532C292.621 35.6558 262 57.5618 262 57.5618Z" fill="#E4B1ED"/>
<path fill-rule="evenodd" clip-rule="evenodd" d="M294.984 38.9899C295.129 39.0411 294.281 41.5485 292.792 45.5564C291.304 49.5663 289.173 55.0787 286.758 61.1437C286.697 61.2931 286.636 61.4426 286.582 61.5818L286.419 61.9891L285.962 61.9195C279.294 60.894 273.293 59.9115 268.962 59.15C264.632 58.3886 261.974 57.8482 262 57.7049C262.024 57.5616 264.726 57.842 269.088 58.4131C273.451 58.9863 279.474 59.848 286.144 60.8674L285.526 61.2072C285.58 61.068 285.639 60.9186 285.699 60.7691C288.117 54.7041 290.366 49.2327 292.046 45.2924C293.726 41.35 294.839 38.9387 294.984 38.9899Z" fill="#002C68"/>
<path fill-rule="evenodd" clip-rule="evenodd" d="M273.068 79.9883C272.718 79.9236 273.75 75.8292 275.373 70.8475C276.999 65.8637 278.592 61.8988 278.934 61.9907C279.277 62.0825 278.245 66.1769 276.629 71.1335C275.014 76.0881 273.418 80.053 273.068 79.9883Z" fill="#002C68"/>
<path fill-rule="evenodd" clip-rule="evenodd" d="M308 56.9226C307.95 57.1201 303.656 56.8629 298.409 56.3457C293.162 55.8313 288.951 55.253 289 55.0555C289.052 54.8581 293.344 55.1153 298.593 55.6311C303.838 56.1469 308.049 56.7252 308 56.9226Z" fill="#002C68"/>
<path fill-rule="evenodd" clip-rule="evenodd" d="M39.5264 85.3973L40.255 95.271C40.255 95.271 32.0884 96.4044 34.418 104.062C36.7455 111.72 42.331 108.368 42.331 108.368C42.331 108.368 43.7279 127.992 63.2824 121.77C78.8438 116.819 77.8918 96.1017 75.9168 78.4399C75.1517 71.5974 68.8549 66.8937 62.2787 68.2105L50.5233 70.5657C43.73 71.9244 39.002 78.3007 39.5264 85.3973Z" fill="#FFAFA7"/>
<path fill-rule="evenodd" clip-rule="evenodd" d="M40 101.989L45.3427 131.371C46.5455 137.992 52.8731 142.227 59.2247 140.665C65.11 139.215 68.8795 133.284 67.8227 127.139L64.9226 110.298L40 101.989Z" fill="#FFAFA7"/>
<path fill-rule="evenodd" clip-rule="evenodd" d="M62.021 103.201C62.0775 103.147 62.1972 103.451 62.4655 103.493C62.7274 103.529 63.1266 103.166 63.2236 102.398C63.3578 101.637 63.2834 100.636 63.2026 99.4773C63.1331 98.2318 63.0652 96.9993 62.9941 95.7106C62.7435 90.3612 62.7274 86.0086 62.9601 85.9891C63.1929 85.9697 63.5841 90.2899 63.8347 95.6393C63.8832 96.9323 63.93 98.1648 63.9769 99.4124C64.0109 100.556 64.0432 101.687 63.7943 102.623C63.6003 103.601 62.8486 104.206 62.3798 103.916C61.9304 103.611 61.9903 103.194 62.021 103.201Z" fill="#241352"/>
<path fill-rule="evenodd" clip-rule="evenodd" d="M67.9931 118.019C68.083 118.155 67.2896 119.283 65.6501 120.499C64.0282 121.712 61.4945 122.908 58.5772 122.985C55.66 123.067 53.0868 122.012 51.4276 120.886C49.7509 119.761 48.9224 118.678 49.0057 118.537C49.1526 118.126 53.0408 121.687 58.5531 121.511C64.0655 121.387 67.8353 117.617 67.9931 118.019Z" fill="#241352"/>
<path fill-rule="evenodd" clip-rule="evenodd" d="M63.9763 107.726C64.084 107.812 63.8368 108.486 62.9852 109.137C62.1631 109.782 60.65 110.307 59.0609 109.761C57.478 109.197 56.5292 107.809 56.2059 106.764C55.8635 105.694 56.022 104.987 56.1551 104.989C56.3221 104.973 56.4531 105.597 56.9096 106.403C57.3512 107.202 58.2008 108.196 59.3969 108.622C60.5972 109.036 61.8186 108.769 62.6069 108.399C63.4078 108.033 63.8495 107.609 63.9763 107.726Z" fill="#241352"/>
<path fill-rule="evenodd" clip-rule="evenodd" d="M39.9741 104.728C39.9757 104.882 39.6141 105.151 38.9736 104.859C38.6671 104.71 38.2618 104.284 38.0883 103.546C38.0007 103.186 37.9618 102.745 38.0494 102.283C38.1191 101.832 38.3964 101.346 38.7028 101.19C39.1212 100.925 39.7065 101.081 39.9773 101.797L39.2606 102.377C38.792 100.532 38.565 99.1184 38.7401 98.9974C38.9136 98.8764 39.4357 100.089 40 101.868L39.2833 102.447C39.2671 102.409 39.1487 102.329 39.0028 102.417C38.8455 102.49 38.7742 102.782 38.8277 103.168C38.8796 103.536 39.0368 103.811 39.2282 104.02C39.6157 104.418 39.9838 104.534 39.9741 104.728Z" fill="#241352"/>
<path fill-rule="evenodd" clip-rule="evenodd" d="M69.3233 89.9858C69.0433 90.0304 68.6713 89.6192 68.4913 89.0685C68.3133 88.5179 68.3973 88.037 68.6773 87.9924C68.9573 87.9478 69.3293 88.359 69.5073 88.9096C69.6873 89.4603 69.6033 89.9412 69.3233 89.9858Z" fill="#241352"/>
<path fill-rule="evenodd" clip-rule="evenodd" d="M51.3976 90.9842C51.1196 91.0384 50.7176 90.6353 50.4976 90.0863C50.2776 89.5359 50.3256 89.048 50.6036 88.9938C50.8796 88.9409 51.2816 89.3426 51.5016 89.8931C51.7216 90.4421 51.6756 90.93 51.3976 90.9842Z" fill="#241352"/>
<path fill-rule="evenodd" clip-rule="evenodd" d="M53.9911 86.7739C53.8962 87.0559 53.0125 87.0459 52.0339 87.2999C51.0467 87.5239 50.2815 87.9359 50.0508 87.7319C49.8116 87.5599 50.4237 86.6119 51.7494 86.2919C53.0707 85.9659 54.1075 86.5139 53.9911 86.7739Z" fill="#241352"/>
<path fill-rule="evenodd" clip-rule="evenodd" d="M69.9886 82.1623C69.878 82.4343 69.0174 82.3003 68.0099 82.4043C67.0005 82.4843 66.1743 82.7743 66.0216 82.5263C65.8575 82.3043 66.6399 81.4823 67.924 81.3683C69.2082 81.2463 70.1127 81.9143 69.9886 82.1623Z" fill="#241352"/>
<path fill-rule="evenodd" clip-rule="evenodd" d="M39.2095 95.4627C44.635 90.0098 46.2284 80.9253 47.7001 73.2635C52.724 77.0361 59.634 77.9632 65.4268 75.6442C67.2445 77.8465 69.3805 79.7713 71.7408 81.3306C72.4137 81.7754 73.2083 82.2071 73.9729 81.9692C74.8829 81.6873 75.2887 80.6104 75.5044 79.6546C76.1986 76.6 76.2243 73.3296 75.1905 70.3763C74.1566 67.4274 71.9886 64.8331 69.1498 63.7011C66.1167 62.4899 62.7034 63.0162 59.5528 63.8575C54.8087 65.126 50.2356 67.0751 46.0063 69.6297C41.8539 72.136 37.8681 75.4548 36.1059 80.0686C34.3459 84.6847 34.3544 93.6569 38.5986 95.9891" fill="#241352"/>
<path fill-rule="evenodd" clip-rule="evenodd" d="M58.5961 110.927C57.0954 110.511 56.6043 108.488 57.3309 107.105C58.0557 105.702 59.0233 104.872 59.5838 105.002C60.1369 105.175 60.7576 106.435 60.9712 108.091C61.194 109.73 60.0968 111.325 58.5961 110.927Z" fill="#241352" fill-opacity="0.2"/>
<path fill-rule="evenodd" clip-rule="evenodd" d="M51.117 102.981C48.7248 103.112 46.8819 101.582 47.0059 99.9415C47.126 98.2871 48.8626 97.1112 50.8847 96.9962C52.9068 96.8949 54.7281 97.8844 54.9762 99.5181C55.2242 101.14 53.5093 102.857 51.117 102.981Z" fill="#241352" fill-opacity="0.12"/>
<path fill-rule="evenodd" clip-rule="evenodd" d="M72.1473 101.981C69.7056 102.112 67.8538 100.582 68.0091 98.9412C68.1621 97.2889 69.8831 96.1083 71.8502 95.9956C73.8195 95.8989 75.6469 96.8885 75.9618 98.5178C76.279 100.133 74.5868 101.852 72.1473 101.981Z" fill="#241352" fill-opacity="0.12"/>
<path fill-rule="evenodd" clip-rule="evenodd" d="M40.1851 119.989C39.8931 119.983 39.7311 116.852 39.5471 113.007C39.3691 109.16 39.2351 106.029 39.5251 105.99C39.8051 105.948 40.4071 109.053 40.5871 112.948C40.7731 116.843 40.4671 119.998 40.1851 119.989Z" fill="#6042DD"/>
<path fill-rule="evenodd" clip-rule="evenodd" d="M73.4629 132.19C68.3018 130.09 108 145.182 108 145.182L103.972 172.989L88.8729 167.917L73.4629 132.19Z" fill="#FBC580"/>
<path fill-rule="evenodd" clip-rule="evenodd" d="M47.7501 69.6576C48.9089 67.4988 49.2907 64.7295 48.7745 62.2198C48.3499 60.1524 47.0859 58.1018 45.3603 57.9936C44.3806 57.9311 43.4302 58.5201 42.7096 59.3447C40.9294 61.3784 40.4717 64.9603 41.6578 67.5709C42.844 70.1816 45.557 71.5687 47.8922 70.7586" fill="#241352"/>
<path fill-rule="evenodd" clip-rule="evenodd" d="M293.392 248.492C293.392 248.492 306.458 229.394 304.865 236.624C303.272 243.854 290 275.989 290 275.989L293.392 248.492Z" fill="#241352"/>
<path fill-rule="evenodd" clip-rule="evenodd" d="M99.351 219.218C99.351 219.218 117.244 213.483 116.629 215.37C116.015 217.255 112.971 217.325 109.927 220.368C109.927 220.368 129.928 220.588 128.966 222.273C128.005 223.955 114.985 224.38 114.906 224.666C114.829 224.954 129.147 225.311 128.826 226.868C128.502 228.426 115.197 228.046 115.197 228.046C115.197 228.046 127.531 229.387 127.278 231.065C127.025 232.745 115.654 231.535 115.654 231.535C115.654 231.535 125.172 232.646 124.923 234.166C124.773 235.093 97.0575 235.302 97 235.984C96.9695 236.341 99.351 219.218 99.351 219.218Z" fill="#FFAFA7"/>
<path fill-rule="evenodd" clip-rule="evenodd" d="M126.474 131.989C126.474 131.989 115.236 117.412 117.239 117.42C119.243 117.426 120.288 120.171 124.179 122.049C124.179 122.049 117.97 103.821 119.89 104.203C121.813 104.586 126.399 116.286 126.7 116.273C126.998 116.26 122.742 103.151 124.338 102.991C125.932 102.83 129.842 115.024 129.842 115.024C129.842 115.024 127.164 103.432 128.853 103.172C130.545 102.912 133.036 113.592 133.036 113.592C133.036 113.592 131.044 104.624 132.581 104.404C133.516 104.271 142 126.517 142 126.517C141.777 126.517 126.474 131.989 126.474 131.989Z" fill="#FFAFA7"/>
<path fill-rule="evenodd" clip-rule="evenodd" d="M27.5238 173.989C27.6275 173.978 27.9808 174.71 28 176.168C27.9962 176.875 27.7484 177.902 26.9765 178.542C26.6078 178.862 26.0586 179.09 25.4902 178.944C24.9276 178.808 24.5032 178.363 24.1979 177.976C23.5795 177.135 23.1782 176.638 22.5445 176.551C21.9377 176.439 21.3904 176.676 21.039 177.052C20.3016 177.835 20.3246 178.741 20.1749 178.732C20.075 178.803 19.6929 177.761 20.5224 176.486C20.9276 175.877 21.7437 175.381 22.6482 175.484C23.0956 175.528 23.5738 175.714 23.977 176.072C24.3707 176.419 24.651 176.837 24.9276 177.182C25.9223 178.761 27.2242 177.22 27.2953 176.083C27.4527 174.884 27.3605 174.003 27.5238 173.989Z" fill="#FCF2FC"/>
<path fill-rule="evenodd" clip-rule="evenodd" d="M36.0078 165.103C35.9385 165.004 36.3247 164.244 37.4834 163.441C38.0523 163.063 39.0158 162.767 39.9667 163.214C40.4327 163.422 40.9281 163.864 41.1359 164.529C41.3458 165.182 41.2303 165.861 41.0939 166.384C40.7706 167.47 40.6027 168.153 40.8924 168.855C41.1464 169.538 41.6481 169.974 42.1497 170.134C43.1951 170.469 43.9088 169.958 43.9865 170.12C44.1019 170.182 43.4827 171.136 41.9902 170.97C41.2723 170.882 40.4096 170.31 39.9772 169.321C39.7589 168.834 39.6371 168.241 39.6938 167.635C39.7484 167.042 39.9226 166.528 40.0401 166.058C40.7433 164.184 38.766 163.672 37.813 164.212C36.7655 164.696 36.1106 165.266 36.0078 165.103Z" fill="#FCF2FC"/>
<path fill-rule="evenodd" clip-rule="evenodd" d="M36.0078 144.104C35.9385 144.002 36.3247 143.245 37.4813 142.442C38.0502 142.064 39.0158 141.765 39.9667 142.215C40.4327 142.423 40.9281 142.865 41.1338 143.53C41.3458 144.183 41.2303 144.861 41.0939 145.385C40.7706 146.471 40.6006 147.154 40.8924 147.853C41.1464 148.539 41.6481 148.974 42.1476 149.134C43.1951 149.469 43.9088 148.958 43.9865 149.12C44.1019 149.182 43.4827 150.136 41.9881 149.97C41.2702 149.879 40.4096 149.307 39.9772 148.321C39.7589 147.835 39.6371 147.242 39.6917 146.635C39.7463 146.042 39.9226 145.528 40.0401 145.058C40.7412 143.185 38.766 142.673 37.813 143.21C36.7634 143.697 36.1106 144.266 36.0078 144.104Z" fill="#FCF2FC"/>
<path fill-rule="evenodd" clip-rule="evenodd" d="M57.5049 171.979C57.4059 172.051 56.5819 171.74 55.6299 170.702C55.1805 170.188 54.7746 169.294 55.1443 168.353C55.3134 167.894 55.7242 167.388 56.3935 167.141C57.0507 166.891 57.7659 166.951 58.324 167.041C59.4863 167.266 60.2136 167.376 60.9119 167.047C61.5981 166.752 61.9992 166.241 62.1176 165.753C62.3616 164.73 61.7575 164.091 61.917 164.004C61.9726 163.89 63.0261 164.408 62.9995 165.842C62.9802 166.532 62.4728 167.394 61.4893 167.881C61.0061 168.126 60.4044 168.287 59.7666 168.279C59.1432 168.273 58.5923 168.144 58.0921 168.068C56.0745 167.54 55.7411 169.462 56.3959 170.326C57.0048 171.289 57.662 171.869 57.5049 171.979Z" fill="#FCF2FC"/>
<path fill-rule="evenodd" clip-rule="evenodd" d="M71.9942 193.172C72.0579 193.275 71.6029 193.974 70.3389 194.662C69.7168 194.982 68.6902 195.191 67.7273 194.684C67.2547 194.447 66.7689 193.981 66.5974 193.322C66.4238 192.677 66.593 192.032 66.7733 191.539C67.1844 190.513 67.4086 189.867 67.1558 189.171C66.936 188.489 66.4435 188.03 65.9313 187.835C64.863 187.43 64.0826 187.869 64.0123 187.708C63.8957 187.636 64.6102 186.764 66.1578 187.044C66.9008 187.186 67.7603 187.804 68.1428 188.792C68.3363 189.278 68.4242 189.858 68.3231 190.441C68.2241 191.008 68.0043 191.492 67.8482 191.935C66.9843 193.685 69.0133 194.339 70.0465 193.891C71.1742 193.506 71.8975 193.009 71.9942 193.172Z" fill="#FCF2FC"/>
<path fill-rule="evenodd" clip-rule="evenodd" d="M88.9942 159.173C89.0579 159.276 88.6029 159.977 87.3389 160.663C86.7168 160.981 85.6902 161.192 84.7273 160.685C84.2547 160.448 83.7689 159.982 83.5974 159.325C83.4238 158.677 83.593 158.032 83.7733 157.539C84.1844 156.515 84.4086 155.87 84.1558 155.171C83.936 154.49 83.4435 154.03 82.9313 153.835C81.863 153.43 81.0826 153.867 81.0123 153.708C80.8957 153.636 81.6102 152.764 83.1578 153.044C83.9008 153.186 84.7603 153.804 85.1428 154.792C85.3385 155.278 85.4242 155.859 85.3231 156.441C85.2241 157.008 85.0043 157.492 84.8482 157.936C83.9843 159.688 86.0133 160.338 87.0465 159.892C88.1742 159.507 88.8975 159.009 88.9942 159.173Z" fill="#FCF2FC"/>
<path fill-rule="evenodd" clip-rule="evenodd" d="M98.9534 155.01C99.0306 154.919 99.8826 155.107 101.013 156.031C101.549 156.492 102.127 157.353 101.975 158.385C101.912 158.886 101.629 159.475 101.044 159.838C100.47 160.201 99.7773 160.254 99.2249 160.25C98.0709 160.203 97.3546 160.205 96.7601 160.657C96.1702 161.073 95.8963 161.664 95.887 162.19C95.8753 163.285 96.5869 163.851 96.4534 163.965C96.4253 164.094 95.3112 163.727 95.0279 162.238C94.9015 161.52 95.1988 160.547 96.0321 159.886C96.4394 159.555 96.9801 159.293 97.5887 159.198C98.1833 159.107 98.7357 159.152 99.2296 159.15C101.261 159.373 101.172 157.334 100.362 156.542C99.576 155.643 98.827 155.149 98.9534 155.01Z" fill="#FCF2FC"/>
<path fill-rule="evenodd" clip-rule="evenodd" d="M52.9942 211.173C53.0579 211.276 52.6029 211.975 51.3389 212.663C50.7168 212.981 49.6902 213.192 48.7274 212.685C48.2547 212.445 47.7689 211.982 47.5974 211.323C47.4238 210.677 47.593 210.032 47.7711 209.539C48.1844 208.513 48.4086 207.868 48.1558 207.171C47.936 206.49 47.4436 206.03 46.9314 205.835C45.8608 205.43 45.0804 205.869 45.0123 205.708C44.8958 205.636 45.608 204.764 47.1578 205.044C47.9008 205.186 48.7603 205.804 49.1428 206.792C49.3363 207.278 49.422 207.859 49.3231 208.441C49.2242 209.008 49.0043 209.492 48.8483 209.934C47.9843 211.686 50.0133 212.338 51.0443 211.892C52.1742 211.507 52.8975 211.009 52.9942 211.173Z" fill="#FCF2FC"/>
<path fill-rule="evenodd" clip-rule="evenodd" d="M77.9854 177.982C77.8827 178.05 77.1499 177.633 76.3965 176.433C76.0426 175.843 75.7846 174.853 76.2572 173.895C76.4787 173.428 76.933 172.936 77.5928 172.744C78.2434 172.547 78.9078 172.686 79.4192 172.84C80.4785 173.2 81.1451 173.392 81.846 173.116C82.5286 172.877 82.9761 172.378 83.1519 171.873C83.5172 170.817 83.0354 170.077 83.1975 170.002C83.266 169.887 84.1838 170.543 83.9669 172.06C83.855 172.789 83.2637 173.649 82.2752 174.061C81.7889 174.271 81.2022 174.378 80.604 174.303C80.0219 174.23 79.5196 174.036 79.063 173.903C77.2412 173.133 76.6681 175.131 77.1681 176.117C77.6087 177.199 78.1475 177.881 77.9854 177.982Z" fill="#FCF2FC"/>
<path fill-rule="evenodd" clip-rule="evenodd" d="M82.9842 194.982C82.8837 195.049 82.1486 194.634 81.3953 193.432C81.0437 192.843 80.7835 191.851 81.2583 190.895C81.4775 190.426 81.9318 189.937 82.5938 189.744C83.2444 189.547 83.9064 189.684 84.4178 189.84C85.4771 190.2 86.1459 190.392 86.8445 190.116C87.5271 189.875 87.9745 189.378 88.1503 188.874C88.5155 187.815 88.0362 187.077 88.196 187.002C88.2644 186.887 89.1821 187.541 88.9676 189.058C88.8557 189.787 88.2622 190.649 87.2737 191.062C86.7897 191.271 86.2007 191.376 85.6026 191.301C85.0205 191.229 84.5205 191.036 84.0617 190.903C82.24 190.133 81.667 192.131 82.1669 193.117C82.6075 194.199 83.1485 194.882 82.9842 194.982Z" fill="#FCF2FC"/>
<path fill-rule="evenodd" clip-rule="evenodd" d="M47.191 188.988C47.0789 188.971 46.8568 188.079 47.1329 186.493C47.2803 185.728 47.7515 184.687 48.694 184.21C49.1487 183.966 49.7735 183.874 50.3444 184.195C50.9112 184.503 51.2682 185.107 51.5111 185.614C51.9907 186.697 52.3145 187.351 52.9643 187.627C53.5829 187.92 54.2057 187.815 54.6541 187.51C55.5904 186.869 55.7503 185.882 55.908 185.934C56.0284 185.885 56.2173 187.125 55.0839 188.27C54.5337 188.814 53.5726 189.122 52.6384 188.752C52.1734 188.578 51.7083 188.24 51.3554 187.738C51.0108 187.251 50.7991 186.717 50.5769 186.265C49.8524 184.275 48.1647 185.574 47.8574 186.784C47.4484 188.039 47.3654 189.023 47.191 188.988Z" fill="#FCF2FC"/>
<path fill-rule="evenodd" clip-rule="evenodd" d="M79.192 210.988C79.0798 210.971 78.8556 210.079 79.1338 208.493C79.2792 207.728 79.7525 206.687 80.6951 206.21C81.1477 205.966 81.7747 205.874 82.3456 206.195C82.9124 206.503 83.2674 207.107 83.5124 207.614C83.992 208.697 84.3158 209.351 84.9657 209.627C85.5823 209.92 86.2072 209.815 86.6556 209.51C87.592 208.869 87.7518 207.882 87.9075 207.934C88.0279 207.885 88.2189 209.125 87.0833 210.27C86.5331 210.814 85.5719 211.122 84.6397 210.752C84.1747 210.578 83.7096 210.24 83.3567 209.738C83.012 209.251 82.8003 208.717 82.5781 208.265C81.8536 206.275 80.1636 207.574 79.8584 208.787C79.4494 210.039 79.3664 211.023 79.192 210.988Z" fill="#FCF2FC"/>
<path fill-rule="evenodd" clip-rule="evenodd" d="M79.192 143.988C79.0798 143.971 78.8556 143.076 79.1338 141.494C79.2792 140.728 79.7525 139.685 80.6951 139.21C81.1477 138.966 81.7747 138.874 82.3456 139.195C82.9124 139.501 83.2674 140.107 83.5124 140.611C83.992 141.697 84.3158 142.351 84.9657 142.627C85.5823 142.917 86.2072 142.815 86.6556 142.51C87.592 141.869 87.7518 140.882 87.9075 140.934C88.0279 140.882 88.2189 142.122 87.0833 143.268C86.5331 143.814 85.5719 144.12 84.6397 143.752C84.1747 143.576 83.7096 143.238 83.3567 142.738C83.012 142.249 82.8003 141.715 82.5781 141.265C81.8536 139.272 80.1636 140.572 79.8584 141.784C79.4494 143.039 79.3664 144.021 79.192 143.988Z" fill="#FCF2FC"/>
<path fill-rule="evenodd" clip-rule="evenodd" d="M67.7607 218.957C67.6896 219.054 66.745 218.964 65.3891 218.194C64.7416 217.809 63.9926 217.039 64.0002 216.025C63.9926 215.533 64.2084 214.932 64.7848 214.516C65.346 214.102 66.0849 213.975 66.679 213.917C67.9283 213.837 68.6977 213.754 69.2715 213.252C69.8428 212.785 70.0485 212.184 69.98 211.676C69.8276 210.614 68.977 210.144 69.1039 210.019C69.1141 209.893 70.3685 210.124 70.8966 211.534C71.1429 212.213 70.9677 213.186 70.1704 213.919C69.7819 214.283 69.2411 214.598 68.5987 214.755C67.9715 214.909 67.3697 214.928 66.8415 214.981C64.6198 214.989 65.0235 216.953 66.0138 217.628C66.9939 218.412 67.875 218.807 67.7607 218.957Z" fill="#FCF2FC"/>
<path fill-rule="evenodd" clip-rule="evenodd" d="M30.3904 152.994C30.4932 152.932 31.1521 153.447 31.7518 154.798C32.0298 155.462 32.1764 156.539 31.6292 157.513C31.3731 157.989 30.8916 158.469 30.2415 158.609C29.6002 158.753 28.9808 158.54 28.5081 158.327C27.5319 157.84 26.9146 157.57 26.2208 157.794C25.5445 157.984 25.0695 158.471 24.8506 158.99C24.3954 160.079 24.7806 160.914 24.6186 160.978C24.5442 161.094 23.7322 160.303 24.0911 158.711C24.2706 157.948 24.9207 157.09 25.9056 156.747C26.3893 156.573 26.9606 156.516 27.5231 156.655C28.0703 156.788 28.5299 157.044 28.9546 157.232C30.6158 158.227 31.3622 156.157 30.9835 155.059C30.6705 153.863 30.224 153.085 30.3904 152.994Z" fill="#FCF2FC"/>
<path fill-rule="evenodd" clip-rule="evenodd" d="M66.3904 147.994C66.4933 147.932 67.1521 148.447 67.7518 149.798C68.0298 150.462 68.1764 151.541 67.6292 152.513C67.3731 152.989 66.8916 153.469 66.2415 153.608C65.6002 153.753 64.9808 153.54 64.508 153.327C63.5319 152.84 62.9146 152.57 62.2208 152.794C61.5445 152.984 61.0695 153.471 60.8506 153.99C60.3954 155.079 60.7806 155.914 60.6186 155.978C60.5442 156.094 59.7322 155.305 60.0911 153.711C60.2706 152.948 60.9207 152.09 61.9056 151.749C62.3893 151.573 62.9606 151.516 63.5231 151.655C64.0703 151.788 64.5299 152.044 64.9546 152.232C66.6158 153.227 67.3622 151.157 66.9835 150.059C66.6705 148.863 66.224 148.085 66.3904 147.994Z" fill="#FCF2FC"/>
<path fill-rule="evenodd" clip-rule="evenodd" d="M44.088 186.989C44.0081 186.98 44.0214 186.147 44.1124 184.651C44.2034 183.152 44.3721 180.989 44.6052 178.319C45.0691 172.982 45.8016 165.609 46.6607 157.491C46.856 155.475 46.9559 153.514 46.6851 151.684C46.4343 149.852 45.7395 148.206 44.7295 146.869C42.6917 144.17 39.7994 142.767 37.3399 142.165C34.847 141.554 32.7227 141.584 31.2754 141.625C29.8215 141.677 29.0135 141.77 29 141.679C28.9868 141.609 29.7704 141.361 31.2377 141.166C32.7005 140.982 34.8759 140.817 37.5197 141.35C40.1235 141.877 43.28 143.273 45.5686 146.201C46.7073 147.645 47.5197 149.516 47.8061 151.507C48.1146 153.498 48.0081 155.559 47.8105 157.607C46.9493 165.75 46.0902 173.091 45.4176 178.41C45.0802 181.068 44.7872 183.218 44.5586 184.698C44.3321 186.183 44.1679 186.998 44.088 186.989Z" fill="#241352"/>
<path fill-rule="evenodd" clip-rule="evenodd" d="M47 185.037C47.0332 185.205 39.4503 185.768 30.061 186.293C20.6718 186.82 13.0334 187.11 13 186.941C12.9668 186.774 20.5497 186.21 29.9412 185.685C39.326 185.159 46.9666 184.868 47 185.037Z" fill="#241352"/>
<path fill-rule="evenodd" clip-rule="evenodd" d="M89.7033 179.988C89.3453 179.954 91.0767 173.484 89.1004 165.777C87.2476 158.037 82.7129 153.198 83.0143 152.994C83.0981 152.906 84.3438 153.964 85.8888 156.109C87.4339 158.241 89.1695 161.542 90.1576 165.505C91.1332 169.467 91.1437 173.216 90.7794 175.844C90.4193 178.485 89.8185 180.025 89.7033 179.988Z" fill="#241352"/>
<path fill-rule="evenodd" clip-rule="evenodd" d="M189.009 95.5474C189.458 98.5857 192.471 104.997 195.648 105.881C197.333 106.351 198.585 105.189 199.894 104.245C202.278 102.526 204.633 100.768 206.992 99.0095C207.844 98.3761 208.349 97.155 207.715 96.1328C205.627 92.7711 203.541 89.4094 201.454 86.0499C200.901 85.1609 199.625 84.6126 198.704 85.2963C196.097 87.2251 193.306 89.014 190.926 91.2464C189.299 92.7754 191.377 95.3792 193.203 94.3351C195.853 92.8191 198.268 90.7528 200.734 88.9289C199.815 88.6777 198.898 88.4265 197.982 88.1753C200.068 91.5348 202.155 94.8964 204.241 98.2559C204.483 97.297 204.723 96.3359 204.963 95.377C203.548 96.432 202.128 97.4805 200.717 98.5399C200.009 99.0707 197.114 101.836 196.345 101.655C195.433 101.441 193.961 98.6906 193.385 97.972C192.383 96.7269 191.446 95.5495 190.151 94.6278C189.529 94.1822 188.917 94.9161 189.009 95.5474Z" fill="#FBC580"/>
<path fill-rule="evenodd" clip-rule="evenodd" d="M159.435 126.916C155.918 130.071 154.579 134.982 157.935 138.771C161.092 142.339 167.208 143.096 171.153 140.253C180.681 133.387 170.75 120.719 160.47 123.341C158.567 123.826 159.041 126.36 160.922 126.46C163.927 126.619 167.145 126.728 169.545 128.693C172.125 130.807 172.181 134.38 170.067 136.809C164.462 143.243 154.729 133.769 160.615 128.018C161.357 127.292 160.212 126.22 159.435 126.916Z" fill="#7CABFF"/>
<path fill-rule="evenodd" clip-rule="evenodd" d="M237.03 156.689C235.897 162.984 234.931 169.291 234.03 175.628C233.814 177.152 234.795 178.181 236.208 177.959C241.771 177.093 247.318 176.295 252.808 174.998C253.864 174.747 254.292 173.356 253.791 172.41C250.68 166.551 246.718 158.389 240.864 155.193C239.382 154.383 237.283 156.135 238.391 157.839C240.132 160.521 242.71 162.532 244.738 164.988C247.073 167.817 249.266 170.862 250.949 174.188C251.422 173.304 251.897 172.421 252.369 171.539C246.62 172.146 240.96 173.253 235.267 174.306C236.016 174.915 236.762 175.523 237.509 176.134C238.194 169.763 238.807 163.404 239.252 157.011C239.348 155.663 237.272 155.345 237.03 156.689Z" fill="#FF7081"/>
<path fill-rule="evenodd" clip-rule="evenodd" d="M209.753 145.164C211.367 139.199 212.676 132.783 212.998 126.676C213.098 124.77 209.338 124.294 208.906 126.217C207.545 132.264 207.055 138.719 207 144.857C206.99 146.135 209.401 146.457 209.753 145.164Z" fill="#FF957E"/>
<path fill-rule="evenodd" clip-rule="evenodd" d="M276.792 144.367C282.547 145.455 288.619 146.214 294.429 145.929C296.563 145.826 296.483 141.82 294.429 141.532C288.758 140.735 282.767 140.907 277.083 141.46C275.942 141.571 275.489 144.121 276.792 144.367Z" fill="#FBC580"/>
<path fill-rule="evenodd" clip-rule="evenodd" d="M227.542 67.9671C232.693 70.6183 238.339 73.2021 243.92 74.916C245.679 75.457 246.873 72.8434 245.191 72.039C239.942 69.5265 234.028 67.5886 228.397 66.0312C227.201 65.7023 226.422 67.3905 227.542 67.9671Z" fill="#FF7081"/>
<path fill-rule="evenodd" clip-rule="evenodd" d="M244.883 116.392C244.768 116.291 244.653 116.191 244.538 116.088C243.031 114.755 240.557 114.496 239.091 116.088C237.609 117.698 237.664 119.909 239.091 121.522C239.192 121.635 239.293 121.75 239.396 121.865C240.744 123.387 243.525 123.341 244.883 121.865C246.234 120.398 246.505 117.825 244.883 116.392Z" fill="#241352"/>
<path fill-rule="evenodd" clip-rule="evenodd" d="M109.617 5.58163C103.532 7.68066 98.4963 12.8627 96.2927 19.1953C94.0892 25.5301 94.7408 32.8778 97.9565 38.7107C104.145 49.941 120.036 53.5571 130.076 46.0206C140.115 38.4841 142.055 21.4809 133.998 11.6521C125.938 1.8256 109.687 1.37248 101.147 10.7392" fill="#E2D3F5"/>
<ellipse cx="175.5" cy="131.989" rx="24.5" ry="23" fill="#E6D9F6"/>
<path fill-rule="evenodd" clip-rule="evenodd" d="M119.343 14.952C120.043 15.2569 120.588 15.9691 120.679 16.6963C120.702 16.7455 120.705 16.7731 120.705 16.7731C120.705 16.7731 121.448 22.9968 115.016 27.5823C112.625 29.2867 110.702 32.2611 110.213 35.3837C110.117 35.9869 109.653 36.3667 109.035 36.3511C108.418 36.3347 107.763 35.9261 107.372 35.3107C105.157 31.7426 102.97 26.1459 105.687 20.4805C108.337 14.9595 114.126 12.7802 119.343 14.952Z" fill="#6F35A5"/>
<path fill-rule="evenodd" clip-rule="evenodd" d="M113.68 41.2956C112.959 40.985 112.396 40.252 112.302 39.503C112.281 39.4739 112.279 39.4588 112.279 39.4588C112.279 39.4588 111.537 33.2351 117.968 28.6496C120.381 26.9289 122.318 23.9144 122.784 20.7597C122.873 20.1714 123.32 19.7974 123.92 19.8082C124.519 19.8192 125.156 20.2127 125.54 20.8095C127.78 24.3706 130.043 30.0259 127.297 35.7513C124.654 41.2589 118.887 43.4409 113.68 41.2956Z" fill="#6F35A5"/>
<ellipse cx="254" cy="107.489" rx="67" ry="89.5" fill="#E6D9F6"/>
<path fill-rule="evenodd" clip-rule="evenodd" d="M272.754 96.7962C273.241 96.9541 273.571 97.406 273.573 97.9175C273.583 98.1419 273.584 98.3246 273.584 98.3246C273.584 98.3246 273.575 104.554 266.199 110.286C263.199 112.618 260.596 116.409 259.916 119.954C259.826 120.428 259.459 120.802 258.987 120.899C258.514 120.996 258.03 120.798 257.76 120.397C255.659 117.281 253.277 111.459 257.253 104.567C260.838 98.3522 267.455 95.1756 272.754 96.7962ZM271.185 98.7541C266.625 98.1872 262.153 100.956 259.363 105.786C257.148 109.622 257.574 113.979 258.659 116.861C259.557 114.192 261.305 111.003 264.704 108.361C269.034 104.995 270.719 100.612 271.185 98.7541Z" fill="#D97044"/>
<path fill-rule="evenodd" clip-rule="evenodd" d="M262.365 124.228C261.856 124.065 261.51 123.593 261.508 123.059C261.498 122.851 261.497 122.688 261.497 122.688C261.497 122.688 261.506 116.458 268.882 110.726C271.855 108.415 274.438 104.671 275.146 101.154C275.244 100.664 275.628 100.28 276.119 100.184C276.61 100.088 277.11 100.298 277.386 100.715C279.471 103.854 281.761 109.626 277.828 116.445C274.251 122.644 267.658 125.821 262.365 124.228ZM263.896 122.258C268.456 122.825 272.928 120.056 275.717 115.226C277.933 111.39 277.507 107.033 276.421 104.151C275.524 106.82 273.776 110.01 270.377 112.651C266.046 116.017 264.362 120.4 263.896 122.258Z" fill="#D97044"/>
<path fill-rule="evenodd" clip-rule="evenodd" d="M245.841 22.2116C246.479 22.4224 246.91 23.139 246.898 23.9666C246.914 24.0191 246.914 24.0505 246.914 24.0505C246.914 24.0505 246.782 31.14 239.916 37.7993C237.363 40.2746 235.091 44.1316 234.189 47.8659C234.013 48.5877 233.511 49.1249 232.915 49.2339C232.317 49.342 231.739 49.001 231.443 48.3656C229.784 44.669 228.429 38.6065 231.84 31.4547C235.165 24.4851 241.079 20.758 245.841 22.2116Z" fill="#942C00"/>
<path fill-rule="evenodd" clip-rule="evenodd" d="M236.743 54.0326C236.086 53.8195 235.64 53.0825 235.652 52.23C235.636 52.2005 235.635 52.1834 235.635 52.1834C235.635 52.1834 235.767 45.0939 242.633 38.4346C245.209 35.9357 247.5 32.0294 248.384 28.2624C248.552 27.5594 249.035 27.0324 249.616 26.9216C250.196 26.811 250.76 27.1378 251.05 27.7534C252.735 31.4364 254.156 37.5516 250.709 44.7791C247.392 51.7318 241.5 55.4576 236.743 54.0326Z" fill="#942C00"/>
<path fill-rule="evenodd" clip-rule="evenodd" d="M228.245 53.7456C228.913 53.7352 229.495 53.182 229.671 52.3912C229.701 52.3365 229.708 52.3017 229.708 52.3017C229.708 52.3017 231.201 45.4393 225.956 36.9502C224.013 33.8041 222.658 29.4224 222.615 25.5648C222.604 24.8098 222.228 24.136 221.657 23.8495C221.088 23.5629 220.433 23.7194 219.993 24.2472C217.52 27.3075 214.823 32.7184 216.544 40.6043C218.228 48.3262 223.212 53.7088 228.245 53.7456ZM231.734 49.6203C232.33 50.0387 232.82 50.214 233.524 50.067C233.227 50.9388 232.786 51.5835 232.365 52.0415C232.173 52.2272 231.908 52.2527 231.695 52.1056C231.481 51.9595 231.36 51.6693 231.39 51.3714C231.409 50.8964 231.502 50.3318 231.734 49.6203ZM234.386 25.5073C228.834 30.4988 228.791 37.8258 228.566 37.461C223.322 28.971 224.719 21.9022 224.719 21.9022C224.719 21.9022 224.728 21.8636 224.741 21.8005C224.918 21.0097 225.495 20.4517 226.164 20.4282C229.146 20.4715 232.112 22.3631 234.386 25.5073Z" fill="#D97044"/>
<path d="M297.932 58.0208C297.751 54.7053 297.509 52.9241 295.096 50.747C292.019 47.9271 290.873 45.2053 293.407 41C294.071 43.8199 294.313 46.3437 296.726 47.878C299.138 49.4122 301.129 53.5685 297.932 58.0208ZM293.409 58.0208C293.288 56.2396 293.168 55.3482 291.84 54.1116C290.211 52.6264 289.547 51.1919 290.934 48.9167C291.297 50.4509 291.357 51.7872 292.683 52.5789C294.01 53.3706 295.156 55.6474 293.407 58.0224L293.409 58.0208ZM304.327 73.6563H315.307C315.971 73.6563 316.212 74.0521 315.79 74.497C315.79 74.497 311.506 79 305.595 79H284.421L274.227 74.497C273.805 74.0521 273.986 73.6563 274.65 73.6563H285.508C284.001 73.0134 281.767 70.1919 281.767 66.6801V59.2574H308.19V59.8512C309.035 59.2574 310.06 58.9598 311.145 58.9598C312.653 58.9598 315.488 60.247 315.488 62.4732C315.488 65.6889 312.894 66.8764 311.386 67.7188C311.386 67.7188 308.551 69.5491 306.561 71.6771C305.897 72.6176 305.113 73.3602 304.329 73.6563H304.327ZM311.143 60.2977C310.178 60.2977 308.972 60.6444 308.188 62.2277V66.3349C308.188 66.8796 308.128 67.5224 308.006 68.0671C309.335 66.9777 310.902 66.2367 310.902 66.2367C311.867 65.6921 313.797 64.6534 313.797 62.6252C313.857 61.1907 312.228 60.2977 311.143 60.2977ZM286.35 60.8914H284.661V62.9197H286.35V60.8914ZM286.35 64.1072H284.661V67.4227C284.661 67.4227 285.143 71.8766 288.581 73.2113C286.47 71.1831 286.35 68.8572 286.35 67.4227V64.1072Z" fill="#E4B1ED"/>
<path d="M179.23 77.6721C181.889 77.7602 184.5 77.015 186.632 75.5599C188.764 74.1049 190.288 72.0275 190.951 69.6721H192.793C193.441 69.6714 194.082 69.5391 194.668 69.2847C195.254 69.0303 195.771 68.6601 196.181 68.2009C196.592 67.7417 196.885 67.2049 197.041 66.6292C197.197 66.0536 197.212 65.4534 197.083 64.8721C196.855 63.951 196.287 63.1299 195.474 62.5471C194.661 61.9642 193.654 61.6553 192.621 61.6721H169.46C169.073 61.6721 168.702 61.8126 168.428 62.0627C168.155 62.3127 168.001 62.6519 168.001 63.0055V66.6055C167.958 69.4162 169.101 72.1342 171.192 74.195C173.283 76.2558 176.161 77.501 179.23 77.6721ZM191.335 64.3388H192.793C193.18 64.3388 193.551 64.4793 193.824 64.7293C194.098 64.9794 194.251 65.3185 194.251 65.6721C194.251 66.0258 194.098 66.3649 193.824 66.6149C193.551 66.865 193.18 67.0055 192.793 67.0055H191.335V64.3388ZM174.866 53.2815L173.772 54.2815C174.321 54.8511 174.633 55.5796 174.653 56.3388C174.654 56.6994 174.578 57.0567 174.428 57.3901C174.277 57.7235 174.056 58.0265 173.778 58.2815L171.955 59.9481C171.681 60.1989 171.31 60.34 170.923 60.3405C170.536 60.341 170.164 60.2008 169.89 59.9508C169.616 59.7008 169.461 59.3614 169.461 59.0074C169.46 58.6533 169.613 58.3135 169.887 58.0628L171.71 56.3961C171.163 55.8257 170.853 55.0973 170.835 54.3388C170.833 53.9782 170.91 53.6209 171.06 53.2875C171.21 52.9541 171.431 52.6511 171.71 52.3961L172.803 51.3961C173.079 51.1533 173.447 51.0189 173.829 51.0219C174.212 51.0249 174.577 51.1652 174.848 51.4124C175.118 51.6596 175.272 51.994 175.275 52.3436C175.278 52.6932 175.131 53.03 174.866 53.2815ZM182.157 53.2815L181.063 54.2815C181.613 54.8511 181.925 55.5796 181.944 56.3388C181.946 56.6994 181.869 57.0567 181.719 57.3901C181.569 57.7235 181.348 58.0265 181.069 58.2815L179.246 59.9481C178.973 60.1989 178.602 60.34 178.214 60.3405C177.827 60.341 177.456 60.2008 177.181 59.9508C176.907 59.7008 176.753 59.3614 176.752 59.0074C176.752 58.6533 176.905 58.3135 177.178 58.0628L179.001 56.3961C178.454 55.8257 178.144 55.0973 178.126 54.3388C178.125 53.9782 178.201 53.6209 178.351 53.2875C178.502 52.9541 178.723 52.6511 179.001 52.3961L180.095 51.3961C180.23 51.2688 180.391 51.1672 180.569 51.0973C180.746 51.0275 180.938 50.9907 181.131 50.9891C181.325 50.9876 181.517 51.0213 181.696 51.0884C181.876 51.1554 182.038 51.2544 182.175 51.3796C182.312 51.5048 182.421 51.6537 182.494 51.8175C182.567 51.9814 182.604 52.157 182.602 52.334C182.601 52.511 182.56 52.686 182.484 52.8487C182.408 53.0114 182.297 53.1585 182.157 53.2815ZM189.449 53.2815L188.355 54.2815C188.904 54.8511 189.216 55.5796 189.236 56.3388C189.238 56.6994 189.161 57.0567 189.011 57.3901C188.861 57.7235 188.64 58.0265 188.361 58.2815L186.538 59.9481C186.263 60.191 185.895 60.3254 185.512 60.3224C185.13 60.3193 184.764 60.1791 184.494 59.9319C184.223 59.6847 184.07 59.3503 184.067 59.0007C184.063 58.6511 184.21 58.3143 184.476 58.0628L186.299 56.3961C185.752 55.8257 185.442 55.0973 185.424 54.3388C185.422 53.9782 185.499 53.6209 185.649 53.2875C185.799 52.9541 186.02 52.6511 186.299 52.3961L187.393 51.3961C187.527 51.2688 187.688 51.1672 187.866 51.0973C188.044 51.0275 188.235 50.9907 188.429 50.9891C188.623 50.9876 188.815 51.0213 188.994 51.0884C189.173 51.1554 189.336 51.2544 189.473 51.3796C189.61 51.5048 189.718 51.6537 189.791 51.8175C189.865 51.9814 189.902 52.157 189.9 52.334C189.898 52.511 189.858 52.686 189.782 52.8487C189.705 53.0114 189.594 53.1585 189.455 53.2815H189.449Z" fill="#6F35A5"/>
<path d="M173.117 96.9891C171.988 96.9891 171.004 97.8115 170.724 98.9886L170.566 99.6482H191.423L191.273 99.0025C190.997 97.8183 190.011 96.9891 188.875 96.9891H173.117ZM170.294 101.421C167.541 101.421 167.074 104.089 167 105.853C167 106.343 167.369 106.739 167.824 106.739H194.176C194.631 106.739 195 106.343 195 105.853C194.925 104.089 194.457 101.421 191.706 101.421H170.294ZM168.851 108.512L171.922 134.256C172.062 135.229 172.927 135.989 173.892 135.989H188.109C189.074 135.989 189.94 135.228 190.083 134.232L191.035 126.239L193.149 108.512H168.851ZM180.923 112.057C180.959 112.052 180.961 112.057 180.979 112.057C183.357 112.057 185.363 113.852 186.261 116.489H186.345H190.537L189.798 122.694H186.375H186.263C186.069 123.274 185.838 123.832 185.537 124.328C184.473 126.085 182.846 127.103 181.076 127.124H181.019C179.272 127.124 177.648 126.147 176.559 124.433C176.226 123.911 175.971 123.316 175.76 122.694H175.665H172.203L171.463 116.489H175.634H175.721C176.595 113.88 178.559 112.086 180.923 112.057ZM180.96 115.603C180.304 115.611 179.678 116.038 179.222 116.792C178.766 117.545 178.515 118.563 178.526 119.621C178.537 120.678 178.808 121.689 179.279 122.432C179.751 123.174 180.384 123.587 181.04 123.58C181.365 123.576 181.686 123.47 181.985 123.266C182.283 123.062 182.553 122.765 182.779 122.392C183.005 122.019 183.183 121.577 183.303 121.091C183.422 120.605 183.481 120.086 183.475 119.562C183.47 119.038 183.401 118.52 183.271 118.038C183.142 117.555 182.955 117.118 182.722 116.75C182.488 116.382 182.212 116.092 181.91 115.895C181.608 115.698 181.285 115.599 180.96 115.603Z" fill="#7CABFF"/>
<path d="M296.374 152.989C294.37 152.989 292.999 154.73 292.999 156.598C292.999 156.654 293.012 156.708 293.014 156.764C292.119 156.951 291.293 157.211 290.569 157.542C289.387 158.084 288.382 158.864 287.962 159.864H285.124C284.924 159.864 284.727 159.914 284.554 160.007C284.381 160.1 284.238 160.235 284.141 160.396C284.044 160.557 283.995 160.739 284 160.922C284.006 161.106 284.065 161.286 284.171 161.442L287.749 166.691V173.101C287.73 173.212 287.73 173.325 287.749 173.436V180.145C287.749 181.462 288.938 182.552 290.374 182.552H302.374C303.811 182.552 304.999 181.462 304.999 180.145V174.989H306.124C308.389 174.989 310.249 173.284 310.249 171.208V163.645C310.249 161.569 308.389 159.864 306.124 159.864H304.784C304.364 158.864 303.362 158.084 302.18 157.542C301.456 157.211 300.63 156.951 299.735 156.764C299.737 156.708 299.749 156.654 299.749 156.598C299.749 154.73 298.379 152.989 296.374 152.989ZM296.374 155.052C296.837 155.052 297.433 155.572 297.489 156.466C297.123 156.443 296.753 156.427 296.374 156.427C295.996 156.427 295.626 156.443 295.26 156.466C295.316 155.572 295.912 155.052 296.374 155.052ZM296.374 158.489C298.292 158.489 300.02 158.859 301.173 159.387C301.514 159.543 301.773 159.704 301.994 159.864H291.874H290.755C290.976 159.704 291.235 159.543 291.576 159.387C292.729 158.859 294.457 158.489 296.374 158.489ZM287.153 161.927H288.69C288.811 161.945 288.934 161.945 289.055 161.927H291.874H302.749V172.239H297.499V164.333C297.502 164.195 297.474 164.058 297.417 163.93C297.36 163.802 297.276 163.686 297.17 163.588C297.063 163.491 296.936 163.414 296.797 163.362C296.657 163.31 296.507 163.285 296.357 163.287C296.059 163.291 295.775 163.404 295.567 163.6C295.359 163.796 295.245 164.06 295.249 164.333V172.239H289.999V166.395C289.999 166.202 289.94 166.013 289.828 165.849L287.153 161.927ZM304.999 161.927H306.124C307.173 161.927 307.999 162.684 307.999 163.645V171.208C307.999 172.169 307.173 172.927 306.124 172.927H304.999V161.927ZM289.999 174.302H296.19C296.311 174.32 296.434 174.32 296.555 174.302H302.749V180.145C302.749 180.348 302.596 180.489 302.374 180.489H290.374C290.153 180.489 289.999 180.348 289.999 180.145V174.302Z" fill="#6F35A5"/>
<g clip-path="url(#clip0_1_151)">
<path d="M244.146 157.239H221.75C219.779 157.239 218.167 158.514 218.167 160.072V168.162C218.167 173.587 223.452 178.333 230.314 178.489C237.409 178.659 243.25 174.154 243.25 168.572V167.156H244.146C247.604 167.156 250.417 164.932 250.417 162.197C250.417 159.463 247.604 157.239 244.146 157.239ZM239.667 160.072V164.322H221.75V160.072H239.667ZM239.667 167.156V168.572C239.667 172.482 235.653 175.656 230.708 175.656C225.763 175.656 221.75 172.482 221.75 168.572V167.156M244.146 164.322H243.25V160.072H244.146C245.633 160.072 246.833 161.022 246.833 162.197C246.833 163.373 245.633 164.322 244.146 164.322ZM218.167 179.906H246.833V182.739H218.167V179.906Z" fill="#FF7081"/>
</g>
<path fill-rule="evenodd" clip-rule="evenodd" d="M154.39 210.238C154.654 210.35 154.856 210.622 154.885 210.905C154.894 210.924 154.895 210.935 154.895 210.935C154.895 210.935 155.132 213.359 152.653 215.221C151.731 215.913 150.977 217.096 150.769 218.322C150.728 218.559 150.549 218.712 150.314 218.713C150.079 218.713 149.833 218.561 149.689 218.325C148.872 216.954 148.08 214.791 149.155 212.548C150.203 210.361 152.421 209.447 154.39 210.238Z" fill="#942C00"/>
<path fill-rule="evenodd" clip-rule="evenodd" d="M152.044 220.593C151.772 220.48 151.563 220.199 151.533 219.908C151.525 219.897 151.524 219.891 151.524 219.891C151.524 219.891 151.287 217.467 153.767 215.605C154.697 214.906 155.456 213.707 155.656 212.469C155.694 212.238 155.867 212.087 156.095 212.085C156.323 212.082 156.562 212.229 156.704 212.458C157.53 213.825 158.35 216.01 157.264 218.278C156.219 220.459 154.009 221.374 152.044 220.593Z" fill="#942C00"/>
<defs>
<clipPath id="clip0_1_151">
<rect width="43" height="34" fill="white" transform="translate(211 152.989)"/>
</clipPath>
</defs>
</svg>
