<svg width="283" height="314" viewBox="0 0 283 314" fill="none" xmlns="http://www.w3.org/2000/svg">
<path fill-rule="evenodd" clip-rule="evenodd" d="M107.256 140.919C103.921 144.074 102.654 148.985 105.832 152.774C108.825 156.343 114.619 157.1 118.356 154.254C127.38 147.39 117.975 134.722 108.236 137.344C106.43 137.829 106.882 140.363 108.662 140.463C111.511 140.622 114.557 140.731 116.833 142.696C119.277 144.81 119.33 148.383 117.325 150.813C112.018 157.246 102.797 147.773 108.371 142.021C109.076 141.295 107.992 140.223 107.256 140.919Z" fill="#7CABFF"/>
<path fill-rule="evenodd" clip-rule="evenodd" d="M201.028 152.307C202.22 156.866 203.529 161.376 204.889 165.884C205.218 166.969 206.213 167.308 207.115 166.675C210.664 164.185 214.218 161.738 217.579 158.982C218.226 158.452 218.085 157.384 217.445 156.93C213.508 154.14 208.189 150.022 203.192 149.992C201.922 149.986 201.033 151.831 202.321 152.599C204.34 153.799 206.754 154.227 208.907 155.152C211.395 156.218 213.857 157.469 216.049 159.089C216.101 158.341 216.148 157.59 216.198 156.842C212.438 159.234 208.901 161.911 205.325 164.579C206.029 164.724 206.733 164.871 207.437 165.016C205.911 160.564 204.346 156.141 202.655 151.753C202.298 150.828 200.774 151.335 201.028 152.307Z" fill="#FF7081"/>
<path fill-rule="evenodd" clip-rule="evenodd" d="M226.412 174.882C231.83 172.335 237.374 169.407 242.255 165.969C244.046 164.706 242.281 162.242 240.392 163.214C235.174 165.896 230.088 169.363 225.433 172.899C224.501 173.609 225.187 175.459 226.412 174.882Z" fill="#FBC580"/>
<path fill-rule="evenodd" clip-rule="evenodd" d="M25.9774 192.902C24.8478 187.266 23.3776 181.416 21.2348 176.053C20.4479 174.082 17.5753 175.105 18.0533 177.093C19.367 182.58 21.4844 188.139 23.7796 193.317C24.2407 194.356 26.2334 194.178 25.9774 192.902Z" fill="#FF957E"/>
<path fill-rule="evenodd" clip-rule="evenodd" d="M43.8819 139.394L43.5389 139.092C42.0309 137.759 39.5583 137.498 38.0908 139.092C36.6091 140.703 36.6639 142.916 38.0908 144.527C38.1933 144.641 38.2933 144.753 38.3934 144.869C39.7441 146.388 42.5241 146.345 43.8819 144.869C45.2326 143.4 45.5065 140.827 43.8819 139.394Z" fill="#241352"/>
<path fill-rule="evenodd" clip-rule="evenodd" d="M187.002 293.182C187.002 293.182 129.925 306.413 107 283.565L115.203 228.993C117.696 213.306 116.21 183.126 128.264 172.419C130.596 170.346 132.842 169.315 132.842 169.315C141.298 165.245 156.341 163.047 170.787 162.992C188.334 162.925 206.394 176.147 211 193.02L192.008 237.291L187.002 293.182Z" fill="#70E5FF"/>
<path fill-rule="evenodd" clip-rule="evenodd" d="M182.335 199.775C182.335 199.775 207.935 248.741 195.226 251.348C153.404 259.926 129.132 266.961 129.132 266.961L127 283.085C127.623 285.523 211.607 283.417 221.555 272.212C228.578 264.301 237.916 246.02 218.051 206.452L212.016 192.992L182.335 199.775Z" fill="#FFAFA7"/>
<path fill-rule="evenodd" clip-rule="evenodd" d="M135 172.899L71.1659 197.341L69.1682 164.22L55.5018 158.992C55.5018 158.992 35.6848 212.156 60.4683 222.054C85.2519 231.954 113.177 213.662 113.177 213.662L135 172.899Z" fill="#FFAFA7"/>
<path fill-rule="evenodd" clip-rule="evenodd" d="M142 165.992C120.03 173.044 106.928 181.309 76 194.307L91.8821 229.992L119.255 221.137L142 165.992Z" fill="#70E5FF"/>
<path fill-rule="evenodd" clip-rule="evenodd" d="M179.006 192.399L194.978 229.992L231 223.329L206.732 180.992L178 192.399" fill="#70E5FF"/>
<path fill-rule="evenodd" clip-rule="evenodd" d="M159.435 217.726C167.16 217.32 174.79 217.636 182.509 217.732C183.184 217.742 183.143 216.84 182.509 216.768C174.902 215.908 167.048 216.252 159.435 216.87C158.861 216.918 158.849 217.758 159.435 217.726Z" fill="#002C68"/>
<path fill-rule="evenodd" clip-rule="evenodd" d="M193.684 173.993C167.713 176.36 185.477 215.007 192.133 226.707C192.501 227.359 193.497 226.775 193.131 226.119C186.515 214.298 168.812 178.332 193.769 174.633C194.127 174.58 194.047 173.959 193.684 173.993Z" fill="#002C68"/>
<path fill-rule="evenodd" clip-rule="evenodd" d="M121.326 196.236C118.03 209.03 115.817 222.335 115.001 235.509C114.966 236.054 115.912 236.192 115.993 235.64C117.909 222.542 119.836 209.48 121.995 196.413C122.064 195.997 121.437 195.805 121.326 196.236Z" fill="#002C68"/>
<path fill-rule="evenodd" clip-rule="evenodd" d="M183.297 124.992C183.698 119.442 184.104 113.892 184.506 108.341C188.881 107.112 191.157 101.532 189.409 97.3474C187.664 93.1628 182.707 90.8128 178.205 91.4541C181.045 89.5259 180.829 84.9216 178.498 82.4054C176.167 79.8891 172.516 79.0731 169.082 78.941C165.649 78.8089 162.175 79.2244 158.797 78.6001C155.806 78.044 152.875 76.6783 149.856 77.0576C146.837 77.4389 143.951 80.8266 145.579 83.3897C141.225 82.7527 136.514 82.1732 132.644 84.2675C128.775 86.3619 126.833 92.3212 130.157 95.1976C127.961 96.314 127.412 99.4844 128.647 101.613C129.882 103.739 132.411 104.858 134.868 105.035C137.328 105.209 139.767 104.589 142.154 103.974" fill="#241352"/>
<path fill-rule="evenodd" clip-rule="evenodd" d="M182.445 114.249L181.58 125.739C181.58 125.739 191.264 127.057 188.506 135.967C185.743 144.877 179.119 140.979 179.119 140.979C179.119 140.979 177.461 163.814 154.271 156.574C135.814 150.81 136.942 126.705 139.285 106.154C140.194 98.1921 147.66 92.7174 155.459 94.2495L169.401 96.9889C177.461 98.5719 183.067 105.992 182.445 114.249Z" fill="#FFAFA7"/>
<path fill-rule="evenodd" clip-rule="evenodd" d="M181 135.992L174.705 169.142C173.285 176.61 165.83 181.388 158.343 179.626C151.406 177.991 146.963 171.3 148.209 164.366L151.626 145.366L181 135.992Z" fill="#FFAFA7"/>
<path fill-rule="evenodd" clip-rule="evenodd" d="M154.978 136.081C155.015 136.068 155.084 136.567 154.41 136.912C153.711 137.24 152.589 136.525 152.301 135.351C151.927 134.22 151.983 132.851 152.044 131.445C152.118 129.95 152.195 128.425 152.274 126.825C152.666 120.271 153.219 114.975 153.52 114.992C153.815 115.014 153.742 120.341 153.354 126.897C153.242 128.493 153.139 130.019 153.035 131.513C152.917 132.932 152.807 134.17 153.033 135.123C153.197 136.086 153.864 136.558 154.298 136.486C154.742 136.407 154.904 136.02 154.978 136.081Z" fill="#241352"/>
<path fill-rule="evenodd" clip-rule="evenodd" d="M147.005 154.007C147.113 153.88 148.247 154.57 150.243 155.348C152.221 156.129 155.134 156.928 158.433 156.988C161.737 157.049 164.683 156.36 166.698 155.651C168.729 154.948 169.895 154.301 169.995 154.432C170.079 154.526 169.06 155.394 167.029 156.298C165.02 157.203 161.921 158.054 158.409 157.988C154.9 157.925 151.846 156.959 149.879 155.981C147.895 155.002 146.92 154.097 147.005 154.007Z" fill="#241352"/>
<path fill-rule="evenodd" clip-rule="evenodd" d="M152.021 140.786C152.154 140.684 152.687 141.139 153.703 141.537C154.694 141.94 156.263 142.237 157.813 141.8C159.362 141.354 160.441 140.305 160.983 139.468C161.544 138.62 161.676 137.977 161.854 137.992C161.988 137.99 162.156 138.702 161.713 139.772C161.294 140.815 160.11 142.198 158.164 142.762C156.208 143.307 154.337 142.793 153.308 142.161C152.242 141.521 151.909 140.854 152.021 140.786Z" fill="#241352"/>
<path fill-rule="evenodd" clip-rule="evenodd" d="M182 136.786C181.986 136.62 182.566 136.538 183.209 136.143C183.53 135.939 183.808 135.649 183.91 135.244C184.013 134.83 183.895 134.445 183.572 134.342C183.306 134.239 183.053 134.325 182.994 134.422L182.059 133.941C182.935 132.141 183.718 130.897 183.948 130.998C184.174 131.099 183.777 132.51 183.024 134.365L182.091 133.882C182.483 133.218 183.342 133.067 183.963 133.319C184.418 133.468 184.819 133.922 184.927 134.351C185.055 134.788 185.001 135.21 184.87 135.559C184.614 136.271 184.009 136.689 183.543 136.842C182.568 137.149 181.996 136.909 182 136.786Z" fill="#241352"/>
<path fill-rule="evenodd" clip-rule="evenodd" d="M164.007 114.69C163.908 114.432 164.936 113.826 166.235 114.212C167.535 114.59 168.162 115.682 167.964 115.854C167.771 116.058 167.019 115.504 165.997 115.22C164.986 114.906 164.083 114.974 164.007 114.69Z" fill="#241352"/>
<path fill-rule="evenodd" clip-rule="evenodd" d="M143.01 110.168C142.882 109.92 144.01 109.168 145.588 109.314C147.167 109.448 148.149 110.388 147.981 110.608C147.822 110.858 146.794 110.452 145.5 110.352C144.205 110.222 143.124 110.442 143.01 110.168Z" fill="#241352"/>
<path fill-rule="evenodd" clip-rule="evenodd" d="M180.968 126.371C174.485 119.926 172.58 109.189 170.821 100.136C164.818 104.594 156.558 105.69 149.636 102.948C147.462 105.552 144.91 107.825 142.089 109.67C141.286 110.195 140.334 110.706 139.422 110.424C138.334 110.089 137.85 108.818 137.591 107.69C136.762 104.078 136.733 100.212 137.968 96.7249C139.204 93.2361 141.792 90.1726 145.186 88.8343C148.811 87.4014 152.892 88.0244 156.655 89.019C162.325 90.5185 167.791 92.8215 172.848 95.8398C177.808 98.8023 182.574 102.723 184.677 108.18C186.782 113.634 186.773 124.234 181.699 126.992" fill="#241352"/>
<path fill-rule="evenodd" clip-rule="evenodd" d="M165.882 122.992C165.594 122.974 165.416 122.286 165.48 121.458C165.546 120.629 165.832 119.974 166.118 119.992C166.406 120.01 166.586 120.698 166.518 121.526C166.454 122.353 166.168 123.01 165.882 122.992Z" fill="#241352"/>
<path fill-rule="evenodd" clip-rule="evenodd" d="M146.881 120.992C146.593 120.974 146.415 120.286 146.481 119.458C146.545 118.629 146.831 117.974 147.117 117.992C147.405 118.01 147.585 118.698 147.519 119.526C147.453 120.353 147.169 121.01 146.881 120.992Z" fill="#241352"/>
<path fill-rule="evenodd" clip-rule="evenodd" d="M54 160.523C54 160.523 56.8263 143.058 60.2047 143.246C63.5831 143.434 70.3356 143.246 70.3356 143.246C70.3356 143.246 70.9005 126.634 72.7776 129.277C74.6526 131.92 75.2429 154.27 68.0062 164.992L54 160.523Z" fill="#FFAFA7"/>
<path fill-rule="evenodd" clip-rule="evenodd" d="M129 266.992C129 266.992 99.4279 272.255 100.008 276.157C100.585 280.058 102.662 283.992 102.662 283.992L129 283.362V266.992Z" fill="#FFAFA7"/>
<path fill-rule="evenodd" clip-rule="evenodd" d="M162 284.683L161.771 280.507L99.3903 276.71L78.4687 220.992L10 224.739L33.3595 284.992L162 284.683Z" fill="#FF7081"/>
<mask id="mask0_7_651" style="mask-type:luminance" maskUnits="userSpaceOnUse" x="0" y="282" width="283" height="32">
<path d="M0 282.927H282.979V313.992H0V282.927Z" fill="#FDE5EA"/>
</mask>
<g mask="url(#mask0_7_651)">
<path fill-rule="evenodd" clip-rule="evenodd" d="M-0.000854492 286.18L267.325 282.927L282.979 290.941C282.979 290.941 77.7619 345.849 -0.000854492 286.18Z" fill="#FDE5EA"/>
</g>
<path fill-rule="evenodd" clip-rule="evenodd" d="M158.032 25.0491C158.032 25.0491 144.454 25.7244 144 40.1209C144 40.1209 144.228 47.9934 148.528 50.9167C152.827 53.8401 152.6 56.992 152.6 56.992H163.914C163.914 56.992 163.463 52.9425 165.273 50.6924C167.083 48.4422 171.609 43.7195 170.932 36.7467C170.252 29.7718 165.045 24.3739 158.032 25.0491Z" fill="#FFBC7A"/>
<path fill-rule="evenodd" clip-rule="evenodd" d="M152.458 60.6645C156.455 60.4845 160.499 60.9105 164.471 60.6865C165.043 60.6525 165.239 59.7865 164.613 59.6605C160.752 58.8845 156.339 59.3145 152.458 59.7385C151.863 59.8025 151.832 60.6925 152.458 60.6645Z" fill="#6F35A5"/>
<path fill-rule="evenodd" clip-rule="evenodd" d="M154.486 64.6807C156.141 64.5907 157.808 64.5267 159.467 64.5427C161.118 64.5587 162.81 64.8147 164.451 64.7027C165.054 64.6607 165.24 63.8327 164.6 63.6767C161.424 62.9007 157.562 63.3487 154.353 63.7707C153.804 63.8447 153.932 64.7107 154.486 64.6807Z" fill="#6F35A5"/>
<path fill-rule="evenodd" clip-rule="evenodd" d="M155.435 66.2636C156.758 66.3576 158.124 66.7416 159.442 66.7136C160.094 66.6976 160.213 65.7536 159.593 65.5536C158.313 65.1396 156.762 65.2836 155.435 65.3376C154.851 65.3616 154.859 66.2216 155.435 66.2636Z" fill="#6F35A5"/>
<path fill-rule="evenodd" clip-rule="evenodd" d="M156.111 56.3433C156.437 52.2694 155.025 47.7619 154.309 43.7641C153.897 43.9333 153.488 44.1004 153.077 44.2696C153.671 45.2151 154.655 47.9438 156.167 47.8465C157.73 47.7449 158.311 45.0353 158.529 43.9312H157.182C157.484 45.1897 157.521 48.2251 159.554 47.9374C161.276 47.6942 162.436 45.2109 162.962 43.8487C162.499 43.7239 162.031 43.5991 161.563 43.4743C160.523 47.4594 160.024 52.5042 161.064 56.5189C161.252 57.2423 162.431 57.0985 162.409 56.3433C162.281 52.1213 161.674 47.9882 162.962 43.8487C163.241 42.9603 161.896 42.6451 161.563 43.4743C161.371 43.9439 160.259 46.6175 159.206 46.2727C158.94 46.186 158.59 43.8022 158.529 43.5716C158.374 42.9476 157.306 42.899 157.182 43.5716C157.029 44.3902 156.679 46.6196 155.686 45.9533C155.112 45.5684 154.605 44.1956 154.241 43.6076C153.826 42.9349 152.896 43.4108 153.009 44.1131C153.66 48.1109 153.839 52.7686 155.491 56.5083C155.634 56.8298 156.089 56.6268 156.111 56.3433Z" fill="#6F35A5"/>
<path fill-rule="evenodd" clip-rule="evenodd" d="M115.625 51.9693C121.969 50.2528 128.516 48.7736 134.71 46.6966C135.205 46.5304 135.024 45.8916 134.486 46.0055C128.029 47.369 121.69 49.4011 115.353 51.1344C114.733 51.3044 114.997 52.1393 115.625 51.9693Z" fill="#FFBC7A"/>
<path fill-rule="evenodd" clip-rule="evenodd" d="M123.544 33.6844C127.485 33.6104 131.586 33.8184 135.496 33.3564C136.153 33.2784 136.183 32.4384 135.496 32.3924C131.566 32.1184 127.482 32.5264 123.544 32.6444C122.822 32.6664 122.815 33.6984 123.544 33.6844Z" fill="#FFBC7A"/>
<path fill-rule="evenodd" clip-rule="evenodd" d="M141.81 27.0369C137.396 23.1139 133.182 18.2185 128.153 15.114C127.365 14.6277 126.632 15.708 127.204 16.3703C131.061 20.8301 136.473 24.1436 141.01 27.8532C141.569 28.3108 142.369 27.5319 141.81 27.0369Z" fill="#FFBC7A"/>
<path fill-rule="evenodd" clip-rule="evenodd" d="M151.999 21.7007C152.041 20.3963 151.1 19.1421 150.511 18.0562C149.815 16.7724 149.213 15.2836 148.255 14.2092C147.77 13.6674 146.791 14.2206 147.04 14.9741C147.504 16.3786 148.46 17.626 149.218 18.8712C149.857 19.9319 150.477 21.4138 151.581 21.9579C151.773 22.0535 151.99 21.942 151.999 21.7007Z" fill="#FFBC7A"/>
<mask id="mask1_7_651" style="mask-type:luminance" maskUnits="userSpaceOnUse" x="158" y="0" width="3" height="20">
<path d="M158.761 0H160.761V19.8844H158.761V0Z" fill="#FFBC7A"/>
</mask>
<g mask="url(#mask1_7_651)">
<path fill-rule="evenodd" clip-rule="evenodd" d="M160.532 19.2851C160.702 13.1907 160.91 6.74476 160.27 0.683497C160.174 -0.213977 159.05 -0.242714 158.986 0.683497C158.566 6.76908 159.014 13.1995 159.408 19.2851C159.458 20.0764 160.51 20.0919 160.532 19.2851Z" fill="#FFBC7A"/>
</g>
<path fill-rule="evenodd" clip-rule="evenodd" d="M166.948 21.7409C168.366 19.5815 169.842 17.4157 170.919 15.0486C171.301 14.2136 170.243 13.5736 169.73 14.3259C168.272 16.4642 167.179 18.8631 166.062 21.2048C165.772 21.8193 166.575 22.3088 166.948 21.7409Z" fill="#FFBC7A"/>
<path fill-rule="evenodd" clip-rule="evenodd" d="M173.588 25.9519C176.433 24.7592 179.112 23.2089 181.819 21.7371C184.491 20.286 187.484 19.0231 189.812 17.0552C190.286 16.6521 189.781 15.8315 189.206 16.0196C186.481 16.9043 184.016 18.6427 181.536 20.0566C178.73 21.6586 175.841 23.1779 173.208 25.0568C172.797 25.3504 173.033 26.1834 173.588 25.9519Z" fill="#FFBC7A"/>
<path fill-rule="evenodd" clip-rule="evenodd" d="M175.445 34.661C177.82 35.413 181.902 34.858 183.745 33.2564C184.387 32.6993 183.703 31.8815 182.94 32.0044C181.673 32.2035 180.504 32.8094 179.242 33.0764C177.986 33.3412 176.701 33.3369 175.445 33.57C174.797 33.6907 174.909 34.4894 175.445 34.661Z" fill="#FFBC7A"/>
<path fill-rule="evenodd" clip-rule="evenodd" d="M177.484 45.164C185.563 46.9716 193.9 49.0379 202.165 49.9855C203.163 50.099 203.298 48.701 202.398 48.4608C194.479 46.3536 185.977 45.2608 177.842 44.0024C177.006 43.874 176.629 44.9723 177.484 45.164Z" fill="#FFBC7A"/>
<path fill-rule="evenodd" clip-rule="evenodd" d="M60.2287 188.234C60.5051 186.424 60.4515 184.7 61.4801 183.103C63.5308 179.922 66.4407 180.723 69.2585 182.121C72.1298 183.547 74.8319 184.4 77.954 183.07C82.8289 180.989 85.1152 173.741 80.4653 170.332C78.9589 169.227 77.4761 171.05 77.6775 172.446C77.9583 174.396 78.9397 176.54 77.2447 178.217C74.9798 180.459 72.3227 178.577 70.062 177.571C67.6192 176.485 65.0243 176.247 62.5043 177.25C58.1673 178.98 55.0217 184.778 58.4673 188.693C58.9516 189.246 60.1108 188.997 60.2287 188.234Z" fill="#7E2E84"/>
<path fill-rule="evenodd" clip-rule="evenodd" d="M103.89 243.663C109.976 244.021 116.373 244.165 122.45 243.69C124.683 243.514 124.407 241.103 122.241 241.037C116.257 240.851 109.986 241.265 104.056 241.895C102.867 242.021 102.511 243.581 103.89 243.663Z" fill="#7E2E84"/>
<path fill-rule="evenodd" clip-rule="evenodd" d="M209.154 87.4037C208.344 88.9863 210.994 129.87 210.994 129.87L230.992 128.198L228.66 138.992L238.432 127.897L258 125.622L256.812 85.992L209.154 87.4037Z" fill="#FDE7EB"/>
<path fill-rule="evenodd" clip-rule="evenodd" d="M14 77.992L17.1367 118.677H86.0354L89.8484 132.992L93.8711 117.294L107 116.464L100.948 80.0236L14 77.992Z" fill="#FDE7EB"/>
<path d="M87.6999 105.987C89.5227 106.053 91.3133 105.494 92.7748 104.404C94.2364 103.314 95.2812 101.757 95.736 99.992H96.9989C97.4436 99.9915 97.8827 99.8923 98.2844 99.7017C98.6861 99.511 99.0405 99.2336 99.3219 98.8895C99.6033 98.5454 99.8048 98.1432 99.9118 97.7118C100.019 97.2805 100.029 96.8308 99.9405 96.3952C99.7841 95.7049 99.3944 95.0897 98.8371 94.6529C98.2799 94.2162 97.589 93.9846 96.8809 93.9973H81.0007C80.7355 93.9973 80.4812 94.1025 80.2937 94.2899C80.1062 94.4773 80.0008 94.7314 80.0008 94.9964V97.694C79.9712 99.8002 80.7546 101.837 82.1883 103.381C83.622 104.925 85.5958 105.859 87.6999 105.987ZM95.999 95.9955H96.9989C97.264 95.9955 97.5184 96.1008 97.7059 96.2882C97.8934 96.4755 97.9987 96.7297 97.9987 96.9946C97.9987 97.2596 97.8934 97.5138 97.7059 97.7011C97.5184 97.8885 97.264 97.9938 96.9989 97.9938H95.999V95.9955ZM84.7073 87.7098L83.9574 88.4591C84.3339 88.886 84.5478 89.4319 84.5613 90.0008C84.5624 90.271 84.5099 90.5387 84.407 90.7886C84.304 91.0384 84.1525 91.2654 83.9614 91.4565L82.7115 92.7054C82.524 92.8933 82.2695 92.999 82.004 92.9994C81.7385 92.9998 81.4837 92.8947 81.2957 92.7074C81.1076 92.5201 81.0018 92.2658 81.0014 92.0004C81.0011 91.7351 81.1062 91.4805 81.2937 91.2926L82.5435 90.0437C82.1684 89.6163 81.956 89.0705 81.9436 88.5021C81.9425 88.2319 81.9949 87.9641 82.0979 87.7143C82.2009 87.4645 82.3523 87.2374 82.5435 87.0464L83.2934 86.297C83.482 86.115 83.7346 86.0143 83.9968 86.0166C84.2589 86.0189 84.5097 86.124 84.6951 86.3092C84.8805 86.4944 84.9856 86.745 84.9879 87.007C84.9902 87.269 84.8894 87.5213 84.7073 87.7098ZM89.7067 87.7098L88.9568 88.4591C89.3334 88.886 89.5472 89.4319 89.5607 90.0008C89.5618 90.271 89.5093 90.5387 89.4064 90.7886C89.3034 91.0384 89.152 91.2654 88.9608 91.4565L87.7109 92.7054C87.5234 92.8933 87.2689 92.999 87.0034 92.9994C86.7379 92.9998 86.4831 92.8947 86.2951 92.7074C86.1071 92.5201 86.0012 92.2658 86.0009 92.0004C86.0005 91.7351 86.1056 91.4805 86.2931 91.2926L87.5429 90.0437C87.1678 89.6163 86.9554 89.0705 86.943 88.5021C86.9419 88.2319 86.9944 87.9641 87.0973 87.7143C87.2003 87.4645 87.3517 87.2374 87.5429 87.0464L88.2929 86.297C88.3851 86.2016 88.4954 86.1255 88.6174 86.0731C88.7394 86.0208 88.8706 85.9932 89.0034 85.992C89.1361 85.9909 89.2678 86.0162 89.3907 86.0664C89.5136 86.1166 89.6252 86.1908 89.7191 86.2846C89.813 86.3785 89.8872 86.49 89.9375 86.6128C89.9878 86.7356 90.0131 86.8671 90.0119 86.9998C90.0108 87.1325 89.9832 87.2636 89.9308 87.3855C89.8784 87.5074 89.8022 87.6176 89.7067 87.7098ZM94.7061 87.7098L93.9562 88.4591C94.3328 88.886 94.5466 89.4319 94.5601 90.0008C94.5612 90.271 94.5088 90.5387 94.4058 90.7886C94.3028 91.0384 94.1514 91.2654 93.9602 91.4565L92.7103 92.7054C92.5218 92.8874 92.2692 92.9881 92.007 92.9858C91.7449 92.9836 91.4941 92.8785 91.3087 92.6932C91.1233 92.508 91.0181 92.2574 91.0159 91.9954C91.0136 91.7335 91.1144 91.4811 91.2965 91.2926L92.5464 90.0437C92.1712 89.6163 91.9588 89.0705 91.9464 88.5021C91.9453 88.2319 91.9978 87.9641 92.1008 87.7143C92.2037 87.4645 92.3552 87.2374 92.5464 87.0464L93.2963 86.297C93.3885 86.2016 93.4988 86.1255 93.6208 86.0731C93.7428 86.0208 93.874 85.9932 94.0068 85.992C94.1396 85.9909 94.2712 86.0162 94.3941 86.0664C94.517 86.1166 94.6286 86.1908 94.7225 86.2846C94.8164 86.3785 94.8906 86.49 94.9409 86.6128C94.9912 86.7356 95.0165 86.8671 95.0153 86.9998C95.0142 87.1325 94.9866 87.2636 94.9342 87.3855C94.8818 87.5074 94.8056 87.6176 94.7101 87.7098H94.7061Z" fill="#6F35A5"/>
<path d="M61.6999 105.987C63.5227 106.053 65.3133 105.494 66.7748 104.404C68.2364 103.314 69.2812 101.757 69.736 99.992H70.9989C71.4436 99.9915 71.8827 99.8923 72.2844 99.7017C72.6861 99.511 73.0405 99.2336 73.3219 98.8895C73.6033 98.5454 73.8048 98.1432 73.9118 97.7118C74.0188 97.2805 74.0286 96.8308 73.9405 96.3952C73.7841 95.7049 73.3944 95.0897 72.8371 94.6529C72.2799 94.2162 71.589 93.9846 70.8809 93.9973H55.0007C54.7355 93.9973 54.4812 94.1025 54.2937 94.2899C54.1062 94.4773 54.0008 94.7314 54.0008 94.9964V97.694C53.9712 99.8002 54.7546 101.837 56.1883 103.381C57.622 104.925 59.5958 105.859 61.6999 105.987ZM69.999 95.9955H70.9989C71.264 95.9955 71.5184 96.1008 71.7059 96.2882C71.8934 96.4755 71.9987 96.7297 71.9987 96.9946C71.9987 97.2596 71.8934 97.5138 71.7059 97.7011C71.5184 97.8885 71.264 97.9938 70.9989 97.9938H69.999V95.9955ZM58.7073 87.7098L57.9574 88.4591C58.3339 88.886 58.5478 89.4319 58.5613 90.0008C58.5624 90.271 58.5099 90.5387 58.407 90.7886C58.304 91.0384 58.1525 91.2654 57.9614 91.4565L56.7115 92.7054C56.524 92.8933 56.2695 92.999 56.004 92.9994C55.7385 92.9998 55.4837 92.8947 55.2957 92.7074C55.1076 92.5201 55.0018 92.2658 55.0014 92.0004C55.0011 91.7351 55.1062 91.4805 55.2937 91.2926L56.5435 90.0437C56.1684 89.6163 55.956 89.0705 55.9436 88.5021C55.9425 88.2319 55.9949 87.9641 56.0979 87.7143C56.2009 87.4645 56.3523 87.2374 56.5435 87.0464L57.2934 86.297C57.482 86.115 57.7346 86.0143 57.9968 86.0166C58.2589 86.0189 58.5097 86.124 58.6951 86.3092C58.8805 86.4944 58.9856 86.745 58.9879 87.007C58.9902 87.269 58.8894 87.5213 58.7073 87.7098ZM63.7067 87.7098L62.9568 88.4591C63.3334 88.886 63.5472 89.4319 63.5607 90.0008C63.5618 90.271 63.5093 90.5387 63.4064 90.7886C63.3034 91.0384 63.152 91.2654 62.9608 91.4565L61.7109 92.7054C61.5234 92.8933 61.2689 92.999 61.0034 92.9994C60.7379 92.9998 60.4831 92.8947 60.2951 92.7074C60.1071 92.5201 60.0012 92.2658 60.0009 92.0004C60.0005 91.7351 60.1056 91.4805 60.2931 91.2926L61.5429 90.0437C61.1678 89.6163 60.9554 89.0705 60.943 88.5021C60.9419 88.2319 60.9944 87.9641 61.0973 87.7143C61.2003 87.4645 61.3517 87.2374 61.5429 87.0464L62.2929 86.297C62.3851 86.2016 62.4954 86.1255 62.6174 86.0731C62.7394 86.0208 62.8706 85.9932 63.0034 85.992C63.1361 85.9909 63.2678 86.0162 63.3907 86.0664C63.5136 86.1166 63.6252 86.1908 63.7191 86.2846C63.813 86.3785 63.8872 86.49 63.9375 86.6128C63.9878 86.7356 64.0131 86.8671 64.0119 86.9998C64.0108 87.1325 63.9832 87.2636 63.9308 87.3855C63.8784 87.5074 63.8022 87.6176 63.7067 87.7098ZM68.7061 87.7098L67.9562 88.4591C68.3328 88.886 68.5466 89.4319 68.5601 90.0008C68.5612 90.271 68.5088 90.5387 68.4058 90.7886C68.3028 91.0384 68.1514 91.2654 67.9602 91.4565L66.7103 92.7054C66.5218 92.8874 66.2692 92.9881 66.007 92.9858C65.7449 92.9836 65.4941 92.8785 65.3087 92.6932C65.1233 92.508 65.0181 92.2574 65.0159 91.9954C65.0136 91.7335 65.1144 91.4811 65.2965 91.2926L66.5464 90.0437C66.1712 89.6163 65.9588 89.0705 65.9464 88.5021C65.9453 88.2319 65.9978 87.9641 66.1008 87.7143C66.2037 87.4645 66.3552 87.2374 66.5464 87.0464L67.2963 86.297C67.3885 86.2016 67.4988 86.1255 67.6208 86.0731C67.7428 86.0208 67.874 85.9932 68.0068 85.992C68.1396 85.9909 68.2712 86.0162 68.3941 86.0664C68.517 86.1166 68.6286 86.1908 68.7225 86.2846C68.8164 86.3785 68.8906 86.49 68.9409 86.6128C68.9912 86.7356 69.0165 86.8671 69.0153 86.9998C69.0142 87.1325 68.9866 87.2636 68.9342 87.3855C68.8818 87.5074 68.8056 87.6176 68.7101 87.7098H68.7061Z" fill="#6F35A5"/>
<path d="M33.6999 105.987C35.5227 106.053 37.3133 105.494 38.7748 104.404C40.2364 103.314 41.2812 101.757 41.736 99.992H42.9989C43.4436 99.9915 43.8827 99.8923 44.2844 99.7017C44.6861 99.511 45.0405 99.2336 45.3219 98.8895C45.6033 98.5454 45.8048 98.1432 45.9118 97.7118C46.0188 97.2805 46.0286 96.8308 45.9405 96.3952C45.7841 95.7049 45.3944 95.0897 44.8371 94.6529C44.2799 94.2162 43.589 93.9846 42.8809 93.9973H27.0007C26.7355 93.9973 26.4812 94.1025 26.2937 94.2899C26.1062 94.4773 26.0008 94.7314 26.0008 94.9964V97.694C25.9712 99.8002 26.7546 101.837 28.1883 103.381C29.622 104.925 31.5958 105.859 33.6999 105.987ZM41.999 95.9955H42.9989C43.264 95.9955 43.5184 96.1008 43.7059 96.2882C43.8934 96.4755 43.9987 96.7297 43.9987 96.9946C43.9987 97.2596 43.8934 97.5138 43.7059 97.7011C43.5184 97.8885 43.264 97.9938 42.9989 97.9938H41.999V95.9955ZM30.7073 87.7098L29.9574 88.4591C30.3339 88.886 30.5478 89.4319 30.5613 90.0008C30.5624 90.271 30.5099 90.5387 30.407 90.7886C30.304 91.0384 30.1525 91.2654 29.9614 91.4565L28.7115 92.7054C28.524 92.8933 28.2695 92.999 28.004 92.9994C27.7385 92.9998 27.4837 92.8947 27.2957 92.7074C27.1076 92.5201 27.0018 92.2658 27.0014 92.0004C27.0011 91.7351 27.1062 91.4805 27.2937 91.2926L28.5435 90.0437C28.1684 89.6163 27.956 89.0705 27.9436 88.5021C27.9425 88.2319 27.9949 87.9641 28.0979 87.7143C28.2009 87.4645 28.3523 87.2374 28.5435 87.0464L29.2934 86.297C29.482 86.115 29.7346 86.0143 29.9968 86.0166C30.2589 86.0189 30.5097 86.124 30.6951 86.3092C30.8805 86.4944 30.9856 86.745 30.9879 87.007C30.9902 87.269 30.8894 87.5213 30.7073 87.7098ZM35.7067 87.7098L34.9568 88.4591C35.3334 88.886 35.5472 89.4319 35.5607 90.0008C35.5618 90.271 35.5093 90.5387 35.4064 90.7886C35.3034 91.0384 35.152 91.2654 34.9608 91.4565L33.7109 92.7054C33.5234 92.8933 33.2689 92.999 33.0034 92.9994C32.7379 92.9998 32.4831 92.8947 32.2951 92.7074C32.1071 92.5201 32.0012 92.2658 32.0009 92.0004C32.0005 91.7351 32.1056 91.4805 32.2931 91.2926L33.5429 90.0437C33.1678 89.6163 32.9554 89.0705 32.943 88.5021C32.9419 88.2319 32.9944 87.9641 33.0973 87.7143C33.2003 87.4645 33.3517 87.2374 33.5429 87.0464L34.2929 86.297C34.3851 86.2016 34.4954 86.1255 34.6174 86.0731C34.7394 86.0208 34.8706 85.9932 35.0034 85.992C35.1361 85.9909 35.2678 86.0162 35.3907 86.0664C35.5136 86.1166 35.6252 86.1908 35.7191 86.2846C35.813 86.3785 35.8872 86.49 35.9375 86.6128C35.9878 86.7356 36.0131 86.8671 36.0119 86.9998C36.0108 87.1325 35.9832 87.2636 35.9308 87.3855C35.8784 87.5074 35.8022 87.6176 35.7067 87.7098ZM40.7061 87.7098L39.9562 88.4591C40.3328 88.886 40.5466 89.4319 40.5601 90.0008C40.5612 90.271 40.5088 90.5387 40.4058 90.7886C40.3028 91.0384 40.1514 91.2654 39.9602 91.4565L38.7103 92.7054C38.5218 92.8874 38.2692 92.9881 38.007 92.9858C37.7449 92.9836 37.4941 92.8785 37.3087 92.6932C37.1233 92.508 37.0181 92.2574 37.0159 91.9954C37.0136 91.7335 37.1144 91.4811 37.2965 91.2926L38.5464 90.0437C38.1712 89.6163 37.9588 89.0705 37.9464 88.5021C37.9453 88.2319 37.9978 87.9641 38.1008 87.7143C38.2037 87.4645 38.3552 87.2374 38.5464 87.0464L39.2963 86.297C39.3885 86.2016 39.4988 86.1255 39.6208 86.0731C39.7428 86.0208 39.874 85.9932 40.0068 85.992C40.1396 85.9909 40.2712 86.0162 40.3941 86.0664C40.517 86.1166 40.6286 86.1908 40.7225 86.2846C40.8164 86.3785 40.8906 86.49 40.9409 86.6128C40.9912 86.7356 41.0165 86.8671 41.0153 86.9998C41.0142 87.1325 40.9866 87.2636 40.9342 87.3855C40.8818 87.5074 40.8056 87.6176 40.7101 87.7098H40.7061Z" fill="#6F35A5"/>
<path fill-rule="evenodd" clip-rule="evenodd" d="M237.105 93.9549C237.805 94.2598 238.35 94.972 238.44 95.6992C238.464 95.7484 238.467 95.776 238.467 95.776C238.467 95.776 239.21 102 232.778 106.585C230.387 108.29 228.464 111.264 227.975 114.387C227.878 114.99 227.415 115.37 226.797 115.354C226.179 115.338 225.525 114.929 225.134 114.314C222.919 110.745 220.731 105.149 223.449 99.4835C226.098 93.9625 231.887 91.7832 237.105 93.9549Z" fill="#942C00"/>
<path fill-rule="evenodd" clip-rule="evenodd" d="M231.442 120.299C230.721 119.988 230.157 119.255 230.064 118.506C230.043 118.477 230.041 118.462 230.041 118.462C230.041 118.462 229.298 112.238 235.73 107.653C238.143 105.932 240.079 102.917 240.546 99.7626C240.635 99.1743 241.081 98.8003 241.681 98.8111C242.281 98.8221 242.918 99.2156 243.301 99.8124C245.541 103.373 247.805 109.029 245.058 114.754C242.416 120.262 236.649 122.444 231.442 120.299Z" fill="#942C00"/>
<path fill-rule="evenodd" clip-rule="evenodd" d="M52.3899 248.23C52.6541 248.342 52.8562 248.614 52.8853 248.897C52.8938 248.916 52.895 248.927 52.895 248.927C52.895 248.927 53.1323 251.351 50.6525 253.213C49.7306 253.905 48.9775 255.088 48.7689 256.314C48.7278 256.551 48.5487 256.704 48.3139 256.705C48.079 256.705 47.8331 256.553 47.6886 256.317C46.872 254.947 46.0803 252.783 47.1552 250.54C48.2029 248.353 50.4209 247.439 52.3899 248.23Z" fill="#6F35A5"/>
<path fill-rule="evenodd" clip-rule="evenodd" d="M50.044 258.585C49.772 258.472 49.5629 258.191 49.5329 257.9C49.5251 257.889 49.5243 257.883 49.5243 257.883C49.5243 257.883 49.287 255.459 51.7667 253.597C52.6972 252.898 53.4557 251.699 53.6559 250.461C53.6942 250.23 53.8666 250.079 54.0948 250.077C54.3227 250.074 54.5622 250.221 54.7039 250.45C55.5301 251.817 56.3502 254.002 55.264 256.27C54.2189 258.451 52.0093 259.366 50.044 258.585Z" fill="#6F35A5"/>
<path d="M237.117 243.992C235.988 243.992 235.004 244.814 234.724 245.992L234.566 246.651H255.423L255.273 246.005C254.997 244.821 254.011 243.992 252.875 243.992H237.117ZM234.294 248.424C231.541 248.424 231.074 251.092 231 252.856C231 253.346 231.369 253.742 231.824 253.742H258.176C258.631 253.742 259 253.346 259 252.856C258.925 251.092 258.457 248.424 255.706 248.424H234.294ZM232.851 255.515L235.922 281.259C236.062 282.231 236.927 282.992 237.892 282.992H252.109C253.074 282.992 253.94 282.231 254.083 281.235L255.035 273.242L257.149 255.515H232.851ZM244.923 259.06C244.959 259.055 244.961 259.06 244.979 259.06C247.357 259.06 249.363 260.855 250.261 263.492H250.345H254.537L253.798 269.697H250.375H250.263C250.069 270.277 249.838 270.834 249.537 271.331C248.473 273.088 246.846 274.106 245.076 274.127H245.019C243.272 274.127 241.648 273.15 240.559 271.436C240.226 270.913 239.971 270.319 239.76 269.697H239.665H236.203L235.463 263.492H239.634H239.721C240.595 260.883 242.559 259.089 244.923 259.06ZM244.96 262.606C244.304 262.614 243.678 263.041 243.222 263.795C242.766 264.548 242.515 265.566 242.526 266.624C242.537 267.681 242.808 268.692 243.279 269.435C243.751 270.177 244.384 270.59 245.04 270.583C245.365 270.579 245.686 270.473 245.985 270.269C246.283 270.065 246.553 269.768 246.779 269.395C247.005 269.021 247.183 268.579 247.303 268.094C247.422 267.608 247.481 267.089 247.475 266.565C247.47 266.041 247.401 265.523 247.271 265.041C247.142 264.558 246.955 264.121 246.722 263.753C246.488 263.385 246.212 263.095 245.91 262.898C245.608 262.701 245.285 262.602 244.96 262.606Z" fill="#7E2E84"/>
</svg>
