<svg width="282" height="314" viewBox="0 0 282 314" fill="none" xmlns="http://www.w3.org/2000/svg">
<path fill-rule="evenodd" clip-rule="evenodd" d="M107.256 140.927C103.921 144.082 102.654 148.993 105.832 152.782C108.825 156.351 114.619 157.108 118.356 154.262C127.38 147.398 117.975 134.73 108.236 137.352C106.43 137.837 106.882 140.371 108.662 140.471C111.511 140.63 114.557 140.739 116.833 142.704C119.277 144.818 119.33 148.391 117.325 150.821C112.018 157.254 102.797 147.781 108.371 142.029C109.076 141.303 107.992 140.231 107.256 140.927Z" fill="#7CABFF"/>
<path fill-rule="evenodd" clip-rule="evenodd" d="M201.028 152.315C202.22 156.874 203.529 161.384 204.889 165.892C205.218 166.977 206.213 167.316 207.115 166.683C210.664 164.193 214.218 161.746 217.579 158.99C218.226 158.46 218.085 157.392 217.445 156.938C213.508 154.148 208.189 150.03 203.192 150C201.922 149.994 201.033 151.839 202.321 152.607C204.34 153.807 206.754 154.235 208.907 155.16C211.395 156.226 213.857 157.477 216.049 159.097C216.101 158.349 216.148 157.598 216.198 156.85C212.438 159.242 208.901 161.919 205.325 164.587C206.029 164.732 206.733 164.879 207.437 165.024C205.911 160.572 204.346 156.149 202.655 151.761C202.298 150.836 200.774 151.343 201.028 152.315Z" fill="#FF7081"/>
<path fill-rule="evenodd" clip-rule="evenodd" d="M226.412 174.89C231.83 172.343 237.374 169.415 242.255 165.977C244.046 164.714 242.281 162.25 240.392 163.222C235.174 165.904 230.088 169.371 225.433 172.907C224.501 173.617 225.187 175.467 226.412 174.89Z" fill="#FBC580"/>
<path fill-rule="evenodd" clip-rule="evenodd" d="M25.9774 192.91C24.8478 187.274 23.3776 181.424 21.2348 176.061C20.4479 174.09 17.5753 175.113 18.0533 177.101C19.367 182.588 21.4844 188.147 23.7796 193.325C24.2407 194.364 26.2334 194.186 25.9774 192.91Z" fill="#FF957E"/>
<path fill-rule="evenodd" clip-rule="evenodd" d="M43.8819 139.402L43.5389 139.1C42.0309 137.767 39.5583 137.506 38.0908 139.1C36.6091 140.711 36.6639 142.924 38.0908 144.535C38.1933 144.649 38.2933 144.761 38.3934 144.877C39.7441 146.396 42.5241 146.353 43.8819 144.877C45.2326 143.408 45.5065 140.835 43.8819 139.402Z" fill="#241352"/>
<path fill-rule="evenodd" clip-rule="evenodd" d="M187.002 293.19C187.002 293.19 129.925 306.421 107 283.573L115.203 229.001C117.696 213.314 116.21 183.134 128.264 172.427C130.596 170.354 132.842 169.323 132.842 169.323C141.298 165.253 156.341 163.055 170.787 163C188.334 162.933 206.394 176.155 211 193.028L192.008 237.299L187.002 293.19Z" fill="#FF7081"/>
<path fill-rule="evenodd" clip-rule="evenodd" d="M182.335 199.783C182.335 199.783 207.935 248.749 195.226 251.356C153.404 259.934 129.132 266.969 129.132 266.969L127 283.093C127.623 285.531 211.607 283.425 221.555 272.22C228.578 264.309 237.916 246.028 218.051 206.46L212.016 193L182.335 199.783Z" fill="#FFAFA7"/>
<path fill-rule="evenodd" clip-rule="evenodd" d="M135 172.907L71.1659 197.349L69.1682 164.228L55.5018 159C55.5018 159 35.6848 212.164 60.4683 222.062C85.2519 231.962 113.177 213.67 113.177 213.67L135 172.907Z" fill="#FFAFA7"/>
<path fill-rule="evenodd" clip-rule="evenodd" d="M142 166C120.03 173.052 106.928 181.317 76 194.315L91.8821 230L119.255 221.145L142 166Z" fill="#FF7081"/>
<path fill-rule="evenodd" clip-rule="evenodd" d="M179.006 192.407L194.978 230L231 223.337L206.732 181L178 192.407" fill="#FF7081"/>
<path fill-rule="evenodd" clip-rule="evenodd" d="M159.435 217.734C167.16 217.328 174.79 217.644 182.509 217.74C183.184 217.75 183.143 216.848 182.509 216.776C174.902 215.916 167.048 216.26 159.435 216.878C158.861 216.926 158.849 217.766 159.435 217.734Z" fill="#002C68"/>
<path fill-rule="evenodd" clip-rule="evenodd" d="M193.684 174.001C167.713 176.368 185.477 215.015 192.133 226.715C192.501 227.367 193.497 226.783 193.131 226.127C186.515 214.306 168.812 178.34 193.769 174.641C194.127 174.588 194.047 173.967 193.684 174.001Z" fill="#002C68"/>
<path fill-rule="evenodd" clip-rule="evenodd" d="M121.326 196.244C118.03 209.038 115.817 222.343 115.001 235.517C114.966 236.062 115.912 236.2 115.993 235.648C117.909 222.55 119.836 209.488 121.995 196.421C122.064 196.005 121.437 195.813 121.326 196.244Z" fill="#002C68"/>
<path fill-rule="evenodd" clip-rule="evenodd" d="M183.297 125C183.698 119.45 184.104 113.9 184.506 108.349C188.881 107.12 191.157 101.54 189.409 97.3554C187.664 93.1708 182.707 90.8208 178.205 91.4621C181.045 89.5339 180.829 84.9296 178.498 82.4134C176.167 79.8971 172.516 79.0811 169.082 78.949C165.649 78.8169 162.175 79.2324 158.797 78.6081C155.806 78.052 152.875 76.6863 149.856 77.0656C146.837 77.4469 143.951 80.8346 145.579 83.3977C141.225 82.7607 136.514 82.1812 132.644 84.2755C128.775 86.3699 126.833 92.3292 130.157 95.2056C127.961 96.322 127.412 99.4924 128.647 101.621C129.882 103.747 132.411 104.866 134.868 105.043C137.328 105.217 139.767 104.597 142.154 103.982" fill="#241352"/>
<path fill-rule="evenodd" clip-rule="evenodd" d="M182.445 114.257L181.58 125.747C181.58 125.747 191.264 127.065 188.506 135.975C185.743 144.885 179.119 140.987 179.119 140.987C179.119 140.987 177.461 163.822 154.271 156.582C135.814 150.818 136.942 126.713 139.285 106.162C140.194 98.2001 147.66 92.7254 155.459 94.2575L169.401 96.9969C177.461 98.5799 183.067 106 182.445 114.257Z" fill="#FFAFA7"/>
<path fill-rule="evenodd" clip-rule="evenodd" d="M181 136L174.705 169.15C173.285 176.618 165.83 181.396 158.343 179.634C151.406 177.999 146.963 171.308 148.209 164.374L151.626 145.374L181 136Z" fill="#FFAFA7"/>
<path fill-rule="evenodd" clip-rule="evenodd" d="M154.978 136.089C155.015 136.076 155.084 136.575 154.41 136.92C153.711 137.248 152.589 136.533 152.301 135.359C151.927 134.228 151.983 132.859 152.044 131.453C152.118 129.958 152.195 128.433 152.274 126.833C152.666 120.279 153.219 114.983 153.52 115C153.815 115.022 153.742 120.349 153.354 126.905C153.242 128.501 153.139 130.027 153.035 131.521C152.917 132.94 152.807 134.178 153.033 135.131C153.197 136.094 153.864 136.566 154.298 136.494C154.742 136.415 154.904 136.028 154.978 136.089Z" fill="#241352"/>
<path fill-rule="evenodd" clip-rule="evenodd" d="M147.005 154.015C147.113 153.888 148.247 154.578 150.243 155.356C152.221 156.137 155.134 156.936 158.433 156.996C161.737 157.057 164.683 156.368 166.698 155.659C168.729 154.956 169.895 154.309 169.995 154.44C170.079 154.534 169.06 155.402 167.029 156.306C165.02 157.211 161.921 158.062 158.409 157.996C154.9 157.933 151.846 156.967 149.879 155.989C147.895 155.01 146.92 154.105 147.005 154.015Z" fill="#241352"/>
<path fill-rule="evenodd" clip-rule="evenodd" d="M152.021 140.794C152.154 140.692 152.687 141.147 153.703 141.545C154.694 141.948 156.263 142.245 157.813 141.808C159.362 141.362 160.441 140.313 160.983 139.476C161.544 138.628 161.676 137.985 161.854 138C161.988 137.998 162.156 138.71 161.713 139.78C161.294 140.823 160.11 142.206 158.164 142.77C156.208 143.315 154.337 142.801 153.308 142.169C152.242 141.529 151.909 140.862 152.021 140.794Z" fill="#241352"/>
<path fill-rule="evenodd" clip-rule="evenodd" d="M182 136.794C181.986 136.628 182.566 136.546 183.209 136.151C183.53 135.947 183.808 135.657 183.91 135.252C184.013 134.838 183.895 134.453 183.572 134.35C183.306 134.247 183.053 134.333 182.994 134.43L182.059 133.949C182.935 132.149 183.718 130.905 183.948 131.006C184.174 131.107 183.777 132.518 183.024 134.373L182.091 133.89C182.483 133.226 183.342 133.075 183.963 133.327C184.418 133.476 184.819 133.93 184.927 134.359C185.055 134.796 185.001 135.218 184.87 135.567C184.614 136.279 184.009 136.697 183.543 136.85C182.568 137.157 181.996 136.917 182 136.794Z" fill="#241352"/>
<path fill-rule="evenodd" clip-rule="evenodd" d="M164.007 114.698C163.908 114.44 164.936 113.834 166.235 114.22C167.535 114.598 168.162 115.69 167.964 115.862C167.771 116.066 167.019 115.512 165.997 115.228C164.986 114.914 164.083 114.982 164.007 114.698Z" fill="#241352"/>
<path fill-rule="evenodd" clip-rule="evenodd" d="M143.01 110.176C142.882 109.928 144.01 109.176 145.588 109.322C147.167 109.456 148.149 110.396 147.981 110.616C147.822 110.866 146.794 110.46 145.5 110.36C144.205 110.23 143.124 110.45 143.01 110.176Z" fill="#241352"/>
<path fill-rule="evenodd" clip-rule="evenodd" d="M180.968 126.379C174.485 119.934 172.58 109.197 170.821 100.144C164.818 104.602 156.558 105.698 149.636 102.956C147.462 105.56 144.91 107.833 142.089 109.678C141.286 110.203 140.334 110.714 139.422 110.432C138.334 110.097 137.85 108.826 137.591 107.698C136.762 104.086 136.733 100.22 137.968 96.7329C139.204 93.2441 141.792 90.1806 145.186 88.8423C148.811 87.4094 152.892 88.0324 156.655 89.027C162.325 90.5265 167.791 92.8295 172.848 95.8478C177.808 98.8103 182.574 102.731 184.677 108.188C186.782 113.642 186.773 124.242 181.699 127" fill="#241352"/>
<path fill-rule="evenodd" clip-rule="evenodd" d="M165.882 123C165.594 122.982 165.416 122.294 165.48 121.466C165.546 120.637 165.832 119.982 166.118 120C166.406 120.018 166.586 120.706 166.518 121.534C166.454 122.361 166.168 123.018 165.882 123Z" fill="#241352"/>
<path fill-rule="evenodd" clip-rule="evenodd" d="M146.881 121C146.593 120.982 146.415 120.294 146.481 119.466C146.545 118.637 146.831 117.982 147.117 118C147.405 118.018 147.585 118.706 147.519 119.534C147.453 120.361 147.169 121.018 146.881 121Z" fill="#241352"/>
<path fill-rule="evenodd" clip-rule="evenodd" d="M54 160.531C54 160.531 56.8263 143.066 60.2047 143.254C63.5831 143.442 70.3356 143.254 70.3356 143.254C70.3356 143.254 70.9005 126.642 72.7776 129.285C74.6526 131.928 75.2429 154.278 68.0062 165L54 160.531Z" fill="#FFAFA7"/>
<path fill-rule="evenodd" clip-rule="evenodd" d="M129 267C129 267 99.4279 272.263 100.008 276.165C100.585 280.066 102.662 284 102.662 284L129 283.37V267Z" fill="#FFAFA7"/>
<path fill-rule="evenodd" clip-rule="evenodd" d="M162 284.691L161.771 280.515L99.3903 276.718L78.4687 221L10 224.747L33.3595 285L162 284.691Z" fill="#6F35A5"/>
<mask id="mask0_5_583" style="mask-type:luminance" maskUnits="userSpaceOnUse" x="0" y="282" width="283" height="32">
<path d="M0 282.935H282.979V314H0V282.935Z" fill="#E2D3F5"/>
</mask>
<g mask="url(#mask0_5_583)">
<path fill-rule="evenodd" clip-rule="evenodd" d="M-0.000854492 286.188L267.325 282.935L282.979 290.949C282.979 290.949 77.7619 345.857 -0.000854492 286.188Z" fill="#E2D3F5"/>
</g>
<path fill-rule="evenodd" clip-rule="evenodd" d="M158.032 25.0571C158.032 25.0571 144.454 25.7324 144 40.1289C144 40.1289 144.228 48.0014 148.528 50.9247C152.827 53.8481 152.6 57 152.6 57H163.914C163.914 57 163.463 52.9505 165.273 50.7003C167.083 48.4502 171.609 43.7275 170.932 36.7547C170.252 29.7798 165.045 24.3818 158.032 25.0571Z" fill="#FFBC7A"/>
<path fill-rule="evenodd" clip-rule="evenodd" d="M152.458 60.6725C156.455 60.4925 160.499 60.9185 164.471 60.6945C165.043 60.6605 165.239 59.7945 164.613 59.6685C160.752 58.8925 156.339 59.3225 152.458 59.7465C151.863 59.8105 151.832 60.7005 152.458 60.6725Z" fill="#6F35A5"/>
<path fill-rule="evenodd" clip-rule="evenodd" d="M154.486 64.6887C156.141 64.5987 157.808 64.5347 159.467 64.5507C161.118 64.5667 162.81 64.8227 164.451 64.7107C165.054 64.6687 165.24 63.8407 164.6 63.6847C161.424 62.9087 157.562 63.3567 154.353 63.7787C153.804 63.8527 153.932 64.7187 154.486 64.6887Z" fill="#6F35A5"/>
<path fill-rule="evenodd" clip-rule="evenodd" d="M155.435 66.2716C156.758 66.3656 158.124 66.7496 159.442 66.7216C160.094 66.7056 160.213 65.7616 159.593 65.5616C158.313 65.1476 156.762 65.2916 155.435 65.3456C154.851 65.3696 154.859 66.2296 155.435 66.2716Z" fill="#6F35A5"/>
<path fill-rule="evenodd" clip-rule="evenodd" d="M156.111 56.3513C156.437 52.2774 155.025 47.7699 154.309 43.7721C153.897 43.9413 153.488 44.1084 153.077 44.2776C153.671 45.2231 154.655 47.9518 156.167 47.8545C157.73 47.7529 158.311 45.0433 158.529 43.9392H157.182C157.484 45.1977 157.521 48.2331 159.554 47.9454C161.276 47.7022 162.436 45.2189 162.962 43.8567C162.499 43.7319 162.031 43.6071 161.563 43.4823C160.523 47.4674 160.024 52.5122 161.064 56.5269C161.252 57.2503 162.431 57.1065 162.409 56.3513C162.281 52.1293 161.674 47.9962 162.962 43.8567C163.241 42.9683 161.896 42.6531 161.563 43.4823C161.371 43.9519 160.259 46.6255 159.206 46.2807C158.94 46.194 158.59 43.8102 158.529 43.5796C158.374 42.9556 157.306 42.907 157.182 43.5796C157.029 44.3982 156.679 46.6276 155.686 45.9613C155.112 45.5764 154.605 44.2036 154.241 43.6156C153.826 42.9429 152.896 43.4188 153.009 44.1211C153.66 48.1189 153.839 52.7766 155.491 56.5163C155.634 56.8378 156.089 56.6348 156.111 56.3513Z" fill="#6F35A5"/>
<path fill-rule="evenodd" clip-rule="evenodd" d="M115.625 51.9773C121.969 50.2608 128.516 48.7815 134.71 46.7046C135.205 46.5384 135.024 45.8996 134.486 46.0135C128.029 47.377 121.69 49.4091 115.353 51.1424C114.733 51.3124 114.997 52.1473 115.625 51.9773Z" fill="#FFBC7A"/>
<path fill-rule="evenodd" clip-rule="evenodd" d="M123.544 33.6924C127.485 33.6184 131.586 33.8264 135.496 33.3644C136.153 33.2864 136.183 32.4464 135.496 32.4004C131.566 32.1264 127.482 32.5344 123.544 32.6524C122.822 32.6744 122.815 33.7064 123.544 33.6924Z" fill="#FFBC7A"/>
<path fill-rule="evenodd" clip-rule="evenodd" d="M141.81 27.0449C137.396 23.1219 133.182 18.2265 128.153 15.122C127.365 14.6357 126.632 15.716 127.204 16.3783C131.061 20.8381 136.473 24.1516 141.01 27.8612C141.569 28.3188 142.369 27.5399 141.81 27.0449Z" fill="#FFBC7A"/>
<path fill-rule="evenodd" clip-rule="evenodd" d="M151.999 21.7087C152.041 20.4043 151.1 19.15 150.511 18.0642C149.815 16.7804 149.213 15.2916 148.255 14.2172C147.77 13.6754 146.791 14.2286 147.04 14.9821C147.504 16.3866 148.46 17.634 149.218 18.8792C149.857 19.9399 150.477 21.4218 151.581 21.9659C151.773 22.0615 151.99 21.95 151.999 21.7087Z" fill="#FFBC7A"/>
<mask id="mask1_5_583" style="mask-type:luminance" maskUnits="userSpaceOnUse" x="158" y="0" width="3" height="20">
<path d="M158.761 0.00799561H160.761V19.8924H158.761V0.00799561Z" fill="#FFBC7A"/>
</mask>
<g mask="url(#mask1_5_583)">
<path fill-rule="evenodd" clip-rule="evenodd" d="M160.532 19.2931C160.702 13.1987 160.91 6.75276 160.27 0.691492C160.174 -0.205981 159.05 -0.234718 158.986 0.691492C158.566 6.77707 159.014 13.2075 159.408 19.2931C159.458 20.0844 160.51 20.0999 160.532 19.2931Z" fill="#FFBC7A"/>
</g>
<path fill-rule="evenodd" clip-rule="evenodd" d="M166.948 21.7489C168.366 19.5895 169.842 17.4237 170.919 15.0566C171.301 14.2216 170.243 13.5816 169.73 14.3339C168.272 16.4722 167.179 18.8711 166.062 21.2128C165.772 21.8273 166.575 22.3168 166.948 21.7489Z" fill="#FFBC7A"/>
<path fill-rule="evenodd" clip-rule="evenodd" d="M173.588 25.9599C176.433 24.7672 179.112 23.2169 181.819 21.7451C184.491 20.294 187.484 19.031 189.812 17.0632C190.286 16.6601 189.781 15.8395 189.206 16.0276C186.481 16.9123 184.016 18.6507 181.536 20.0646C178.73 21.6666 175.841 23.1859 173.208 25.0648C172.797 25.3584 173.033 26.1914 173.588 25.9599Z" fill="#FFBC7A"/>
<path fill-rule="evenodd" clip-rule="evenodd" d="M175.445 34.669C177.82 35.421 181.902 34.866 183.745 33.2644C184.387 32.7073 183.703 31.8895 182.94 32.0124C181.673 32.2115 180.504 32.8174 179.242 33.0844C177.986 33.3492 176.701 33.3449 175.445 33.578C174.797 33.6987 174.909 34.4974 175.445 34.669Z" fill="#FFBC7A"/>
<path fill-rule="evenodd" clip-rule="evenodd" d="M177.484 45.172C185.563 46.9796 193.9 49.0459 202.165 49.9935C203.163 50.107 203.298 48.709 202.398 48.4688C194.479 46.3616 185.977 45.2688 177.842 44.0104C177.006 43.882 176.629 44.9803 177.484 45.172Z" fill="#FFBC7A"/>
<path fill-rule="evenodd" clip-rule="evenodd" d="M60.2287 188.242C60.5051 186.432 60.4515 184.708 61.4801 183.111C63.5308 179.93 66.4407 180.731 69.2585 182.129C72.1298 183.555 74.8319 184.408 77.954 183.078C82.8289 180.997 85.1152 173.749 80.4653 170.34C78.9589 169.235 77.4761 171.058 77.6775 172.454C77.9583 174.404 78.9397 176.548 77.2447 178.225C74.9798 180.467 72.3227 178.585 70.062 177.579C67.6192 176.493 65.0243 176.255 62.5043 177.258C58.1673 178.988 55.0217 184.786 58.4673 188.701C58.9516 189.254 60.1108 189.005 60.2287 188.242Z" fill="#7E2E84"/>
<path fill-rule="evenodd" clip-rule="evenodd" d="M103.89 243.671C109.976 244.029 116.373 244.173 122.45 243.698C124.683 243.522 124.407 241.111 122.241 241.045C116.257 240.859 109.986 241.273 104.056 241.903C102.867 242.029 102.511 243.589 103.89 243.671Z" fill="#7E2E84"/>
<path fill-rule="evenodd" clip-rule="evenodd" d="M209.154 87.4117C208.344 88.9943 210.994 129.878 210.994 129.878L230.992 128.206L228.66 139L238.432 127.905L258 125.63L256.812 86L209.154 87.4117Z" fill="#E2D3F5"/>
<path fill-rule="evenodd" clip-rule="evenodd" d="M14 78L17.1367 118.685H86.0354L89.8484 133L93.8711 117.302L107 116.472L100.948 80.0316L14 78Z" fill="#E2D3F5"/>
<path d="M87.6999 105.995C89.5227 106.061 91.3133 105.502 92.7748 104.412C94.2364 103.322 95.2812 101.765 95.736 100H96.9989C97.4436 99.9995 97.8827 99.9003 98.2844 99.7097C98.6861 99.519 99.0405 99.2416 99.3219 98.8975C99.6033 98.5534 99.8048 98.1512 99.9118 97.7198C100.019 97.2885 100.029 96.8388 99.9405 96.4032C99.7841 95.7129 99.3944 95.0977 98.8371 94.6609C98.2799 94.2242 97.589 93.9926 96.8809 94.0053H81.0007C80.7355 94.0053 80.4812 94.1105 80.2937 94.2979C80.1062 94.4853 80.0008 94.7394 80.0008 95.0044V97.702C79.9712 99.8082 80.7546 101.845 82.1883 103.389C83.622 104.933 85.5958 105.867 87.6999 105.995ZM95.999 96.0035H96.9989C97.264 96.0035 97.5184 96.1088 97.7059 96.2962C97.8934 96.4835 97.9987 96.7377 97.9987 97.0026C97.9987 97.2676 97.8934 97.5218 97.7059 97.7091C97.5184 97.8965 97.264 98.0018 96.9989 98.0018H95.999V96.0035ZM84.7073 87.7178L83.9574 88.4671C84.3339 88.894 84.5478 89.4399 84.5613 90.0088C84.5624 90.279 84.5099 90.5467 84.407 90.7966C84.304 91.0464 84.1525 91.2734 83.9614 91.4645L82.7115 92.7134C82.524 92.9013 82.2695 93.007 82.004 93.0074C81.7385 93.0078 81.4837 92.9027 81.2957 92.7154C81.1076 92.5281 81.0018 92.2738 81.0014 92.0084C81.0011 91.7431 81.1062 91.4885 81.2937 91.3006L82.5435 90.0517C82.1684 89.6243 81.956 89.0785 81.9436 88.5101C81.9425 88.2399 81.9949 87.9721 82.0979 87.7223C82.2009 87.4724 82.3523 87.2454 82.5435 87.0544L83.2934 86.305C83.482 86.123 83.7346 86.0223 83.9968 86.0246C84.2589 86.0269 84.5097 86.1319 84.6951 86.3172C84.8805 86.5024 84.9856 86.753 84.9879 87.015C84.9902 87.277 84.8894 87.5293 84.7073 87.7178ZM89.7067 87.7178L88.9568 88.4671C89.3334 88.894 89.5472 89.4399 89.5607 90.0088C89.5618 90.279 89.5093 90.5467 89.4064 90.7966C89.3034 91.0464 89.152 91.2734 88.9608 91.4645L87.7109 92.7134C87.5234 92.9013 87.2689 93.007 87.0034 93.0074C86.7379 93.0078 86.4831 92.9027 86.2951 92.7154C86.1071 92.5281 86.0012 92.2738 86.0009 92.0084C86.0005 91.7431 86.1056 91.4885 86.2931 91.3006L87.5429 90.0517C87.1678 89.6243 86.9554 89.0785 86.943 88.5101C86.9419 88.2399 86.9944 87.9721 87.0973 87.7223C87.2003 87.4724 87.3517 87.2454 87.5429 87.0544L88.2929 86.305C88.3851 86.2096 88.4954 86.1335 88.6174 86.0811C88.7394 86.0288 88.8706 86.0012 89.0034 86C89.1361 85.9989 89.2678 86.0242 89.3907 86.0744C89.5136 86.1246 89.6252 86.1988 89.7191 86.2926C89.813 86.3864 89.8872 86.498 89.9375 86.6208C89.9878 86.7436 90.0131 86.8751 90.0119 87.0078C90.0108 87.1405 89.9832 87.2716 89.9308 87.3935C89.8784 87.5154 89.8022 87.6256 89.7067 87.7178ZM94.7061 87.7178L93.9562 88.4671C94.3328 88.894 94.5466 89.4399 94.5601 90.0088C94.5612 90.279 94.5088 90.5467 94.4058 90.7966C94.3028 91.0464 94.1514 91.2734 93.9602 91.4645L92.7103 92.7134C92.5218 92.8954 92.2692 92.9961 92.007 92.9938C91.7449 92.9916 91.4941 92.8865 91.3087 92.7012C91.1233 92.516 91.0181 92.2654 91.0159 92.0034C91.0136 91.7415 91.1144 91.4891 91.2965 91.3006L92.5464 90.0517C92.1712 89.6243 91.9588 89.0785 91.9464 88.5101C91.9453 88.2399 91.9978 87.9721 92.1008 87.7223C92.2037 87.4724 92.3552 87.2454 92.5464 87.0544L93.2963 86.305C93.3885 86.2096 93.4988 86.1335 93.6208 86.0811C93.7428 86.0288 93.874 86.0012 94.0068 86C94.1396 85.9989 94.2712 86.0242 94.3941 86.0744C94.517 86.1246 94.6286 86.1988 94.7225 86.2926C94.8164 86.3864 94.8906 86.498 94.9409 86.6208C94.9912 86.7436 95.0165 86.8751 95.0153 87.0078C95.0142 87.1405 94.9866 87.2716 94.9342 87.3935C94.8818 87.5154 94.8056 87.6256 94.7101 87.7178H94.7061Z" fill="#6F35A5"/>
<path d="M61.6999 105.995C63.5227 106.061 65.3133 105.502 66.7748 104.412C68.2364 103.322 69.2812 101.765 69.736 100H70.9989C71.4436 99.9995 71.8827 99.9003 72.2844 99.7097C72.6861 99.519 73.0405 99.2416 73.3219 98.8975C73.6033 98.5534 73.8048 98.1512 73.9118 97.7198C74.0188 97.2885 74.0286 96.8388 73.9405 96.4032C73.7841 95.7129 73.3944 95.0977 72.8371 94.6609C72.2799 94.2242 71.589 93.9926 70.8809 94.0053H55.0007C54.7355 94.0053 54.4812 94.1105 54.2937 94.2979C54.1062 94.4853 54.0008 94.7394 54.0008 95.0044V97.702C53.9712 99.8082 54.7546 101.845 56.1883 103.389C57.622 104.933 59.5958 105.867 61.6999 105.995ZM69.999 96.0035H70.9989C71.264 96.0035 71.5184 96.1088 71.7059 96.2962C71.8934 96.4835 71.9987 96.7377 71.9987 97.0026C71.9987 97.2676 71.8934 97.5218 71.7059 97.7091C71.5184 97.8965 71.264 98.0018 70.9989 98.0018H69.999V96.0035ZM58.7073 87.7178L57.9574 88.4671C58.3339 88.894 58.5478 89.4399 58.5613 90.0088C58.5624 90.279 58.5099 90.5467 58.407 90.7966C58.304 91.0464 58.1525 91.2734 57.9614 91.4645L56.7115 92.7134C56.524 92.9013 56.2695 93.007 56.004 93.0074C55.7385 93.0078 55.4837 92.9027 55.2957 92.7154C55.1076 92.5281 55.0018 92.2738 55.0014 92.0084C55.0011 91.7431 55.1062 91.4885 55.2937 91.3006L56.5435 90.0517C56.1684 89.6243 55.956 89.0785 55.9436 88.5101C55.9425 88.2399 55.9949 87.9721 56.0979 87.7223C56.2009 87.4724 56.3523 87.2454 56.5435 87.0544L57.2934 86.305C57.482 86.123 57.7346 86.0223 57.9968 86.0246C58.2589 86.0269 58.5097 86.1319 58.6951 86.3172C58.8805 86.5024 58.9856 86.753 58.9879 87.015C58.9902 87.277 58.8894 87.5293 58.7073 87.7178ZM63.7067 87.7178L62.9568 88.4671C63.3334 88.894 63.5472 89.4399 63.5607 90.0088C63.5618 90.279 63.5093 90.5467 63.4064 90.7966C63.3034 91.0464 63.152 91.2734 62.9608 91.4645L61.7109 92.7134C61.5234 92.9013 61.2689 93.007 61.0034 93.0074C60.7379 93.0078 60.4831 92.9027 60.2951 92.7154C60.1071 92.5281 60.0012 92.2738 60.0009 92.0084C60.0005 91.7431 60.1056 91.4885 60.2931 91.3006L61.5429 90.0517C61.1678 89.6243 60.9554 89.0785 60.943 88.5101C60.9419 88.2399 60.9944 87.9721 61.0973 87.7223C61.2003 87.4724 61.3517 87.2454 61.5429 87.0544L62.2929 86.305C62.3851 86.2096 62.4954 86.1335 62.6174 86.0811C62.7394 86.0288 62.8706 86.0012 63.0034 86C63.1361 85.9989 63.2678 86.0242 63.3907 86.0744C63.5136 86.1246 63.6252 86.1988 63.7191 86.2926C63.813 86.3864 63.8872 86.498 63.9375 86.6208C63.9878 86.7436 64.0131 86.8751 64.0119 87.0078C64.0108 87.1405 63.9832 87.2716 63.9308 87.3935C63.8784 87.5154 63.8022 87.6256 63.7067 87.7178ZM68.7061 87.7178L67.9562 88.4671C68.3328 88.894 68.5466 89.4399 68.5601 90.0088C68.5612 90.279 68.5088 90.5467 68.4058 90.7966C68.3028 91.0464 68.1514 91.2734 67.9602 91.4645L66.7103 92.7134C66.5218 92.8954 66.2692 92.9961 66.007 92.9938C65.7449 92.9916 65.4941 92.8865 65.3087 92.7012C65.1233 92.516 65.0181 92.2654 65.0159 92.0034C65.0136 91.7415 65.1144 91.4891 65.2965 91.3006L66.5464 90.0517C66.1712 89.6243 65.9588 89.0785 65.9464 88.5101C65.9453 88.2399 65.9978 87.9721 66.1008 87.7223C66.2037 87.4724 66.3552 87.2454 66.5464 87.0544L67.2963 86.305C67.3885 86.2096 67.4988 86.1335 67.6208 86.0811C67.7428 86.0288 67.874 86.0012 68.0068 86C68.1396 85.9989 68.2712 86.0242 68.3941 86.0744C68.517 86.1246 68.6286 86.1988 68.7225 86.2926C68.8164 86.3864 68.8906 86.498 68.9409 86.6208C68.9912 86.7436 69.0165 86.8751 69.0153 87.0078C69.0142 87.1405 68.9866 87.2716 68.9342 87.3935C68.8818 87.5154 68.8056 87.6256 68.7101 87.7178H68.7061Z" fill="#6F35A5"/>
<path d="M33.6999 105.995C35.5227 106.061 37.3133 105.502 38.7748 104.412C40.2364 103.322 41.2812 101.765 41.736 100H42.9989C43.4436 99.9995 43.8827 99.9003 44.2844 99.7097C44.6861 99.519 45.0405 99.2416 45.3219 98.8975C45.6033 98.5534 45.8048 98.1512 45.9118 97.7198C46.0188 97.2885 46.0286 96.8388 45.9405 96.4032C45.7841 95.7129 45.3944 95.0977 44.8371 94.6609C44.2799 94.2242 43.589 93.9926 42.8809 94.0053H27.0007C26.7355 94.0053 26.4812 94.1105 26.2937 94.2979C26.1062 94.4853 26.0008 94.7394 26.0008 95.0044V97.702C25.9712 99.8082 26.7546 101.845 28.1883 103.389C29.622 104.933 31.5958 105.867 33.6999 105.995ZM41.999 96.0035H42.9989C43.264 96.0035 43.5184 96.1088 43.7059 96.2962C43.8934 96.4835 43.9987 96.7377 43.9987 97.0026C43.9987 97.2676 43.8934 97.5218 43.7059 97.7091C43.5184 97.8965 43.264 98.0018 42.9989 98.0018H41.999V96.0035ZM30.7073 87.7178L29.9574 88.4671C30.3339 88.894 30.5478 89.4399 30.5613 90.0088C30.5624 90.279 30.5099 90.5467 30.407 90.7966C30.304 91.0464 30.1525 91.2734 29.9614 91.4645L28.7115 92.7134C28.524 92.9013 28.2695 93.007 28.004 93.0074C27.7385 93.0078 27.4837 92.9027 27.2957 92.7154C27.1076 92.5281 27.0018 92.2738 27.0014 92.0084C27.0011 91.7431 27.1062 91.4885 27.2937 91.3006L28.5435 90.0517C28.1684 89.6243 27.956 89.0785 27.9436 88.5101C27.9425 88.2399 27.9949 87.9721 28.0979 87.7223C28.2009 87.4724 28.3523 87.2454 28.5435 87.0544L29.2934 86.305C29.482 86.123 29.7346 86.0223 29.9968 86.0246C30.2589 86.0269 30.5097 86.1319 30.6951 86.3172C30.8805 86.5024 30.9856 86.753 30.9879 87.015C30.9902 87.277 30.8894 87.5293 30.7073 87.7178ZM35.7067 87.7178L34.9568 88.4671C35.3334 88.894 35.5472 89.4399 35.5607 90.0088C35.5618 90.279 35.5093 90.5467 35.4064 90.7966C35.3034 91.0464 35.152 91.2734 34.9608 91.4645L33.7109 92.7134C33.5234 92.9013 33.2689 93.007 33.0034 93.0074C32.7379 93.0078 32.4831 92.9027 32.2951 92.7154C32.1071 92.5281 32.0012 92.2738 32.0009 92.0084C32.0005 91.7431 32.1056 91.4885 32.2931 91.3006L33.5429 90.0517C33.1678 89.6243 32.9554 89.0785 32.943 88.5101C32.9419 88.2399 32.9944 87.9721 33.0973 87.7223C33.2003 87.4724 33.3517 87.2454 33.5429 87.0544L34.2929 86.305C34.3851 86.2096 34.4954 86.1335 34.6174 86.0811C34.7394 86.0288 34.8706 86.0012 35.0034 86C35.1361 85.9989 35.2678 86.0242 35.3907 86.0744C35.5136 86.1246 35.6252 86.1988 35.7191 86.2926C35.813 86.3864 35.8872 86.498 35.9375 86.6208C35.9878 86.7436 36.0131 86.8751 36.0119 87.0078C36.0108 87.1405 35.9832 87.2716 35.9308 87.3935C35.8784 87.5154 35.8022 87.6256 35.7067 87.7178ZM40.7061 87.7178L39.9562 88.4671C40.3328 88.894 40.5466 89.4399 40.5601 90.0088C40.5612 90.279 40.5088 90.5467 40.4058 90.7966C40.3028 91.0464 40.1514 91.2734 39.9602 91.4645L38.7103 92.7134C38.5218 92.8954 38.2692 92.9961 38.007 92.9938C37.7449 92.9916 37.4941 92.8865 37.3087 92.7012C37.1233 92.516 37.0181 92.2654 37.0159 92.0034C37.0136 91.7415 37.1144 91.4891 37.2965 91.3006L38.5464 90.0517C38.1712 89.6243 37.9588 89.0785 37.9464 88.5101C37.9453 88.2399 37.9978 87.9721 38.1008 87.7223C38.2037 87.4724 38.3552 87.2454 38.5464 87.0544L39.2963 86.305C39.3885 86.2096 39.4988 86.1335 39.6208 86.0811C39.7428 86.0288 39.874 86.0012 40.0068 86C40.1396 85.9989 40.2712 86.0242 40.3941 86.0744C40.517 86.1246 40.6286 86.1988 40.7225 86.2926C40.8164 86.3864 40.8906 86.498 40.9409 86.6208C40.9912 86.7436 41.0165 86.8751 41.0153 87.0078C41.0142 87.1405 40.9866 87.2716 40.9342 87.3935C40.8818 87.5154 40.8056 87.6256 40.7101 87.7178H40.7061Z" fill="#6F35A5"/>
<path fill-rule="evenodd" clip-rule="evenodd" d="M237.105 93.9629C237.805 94.2678 238.35 94.98 238.44 95.7072C238.464 95.7564 238.467 95.784 238.467 95.784C238.467 95.784 239.21 102.008 232.778 106.593C230.387 108.298 228.464 111.272 227.975 114.395C227.878 114.998 227.415 115.378 226.797 115.362C226.179 115.346 225.525 114.937 225.134 114.322C222.919 110.753 220.731 105.157 223.449 99.4914C226.098 93.9705 231.887 91.7912 237.105 93.9629Z" fill="#942C00"/>
<path fill-rule="evenodd" clip-rule="evenodd" d="M231.442 120.307C230.721 119.996 230.157 119.263 230.064 118.514C230.043 118.485 230.041 118.47 230.041 118.47C230.041 118.47 229.298 112.246 235.73 107.661C238.143 105.94 240.08 102.925 240.546 99.7706C240.635 99.1823 241.081 98.8083 241.681 98.8191C242.281 98.8301 242.918 99.2236 243.302 99.8204C245.541 103.381 247.805 109.037 245.058 114.762C242.416 120.27 236.649 122.452 231.442 120.307Z" fill="#942C00"/>
<path fill-rule="evenodd" clip-rule="evenodd" d="M52.3899 248.238C52.6541 248.35 52.8562 248.622 52.8853 248.905C52.8938 248.924 52.895 248.935 52.895 248.935C52.895 248.935 53.1323 251.359 50.6525 253.221C49.7306 253.913 48.9775 255.096 48.7689 256.322C48.7278 256.559 48.5487 256.712 48.3139 256.713C48.079 256.713 47.8331 256.561 47.6886 256.325C46.872 254.954 46.0804 252.791 47.1552 250.548C48.2029 248.361 50.4209 247.447 52.3899 248.238Z" fill="#E2D3F5"/>
<path fill-rule="evenodd" clip-rule="evenodd" d="M50.044 258.593C49.772 258.48 49.563 258.199 49.5329 257.908C49.5251 257.897 49.5244 257.891 49.5244 257.891C49.5244 257.891 49.287 255.467 51.7667 253.605C52.6972 252.906 53.4557 251.707 53.6559 250.469C53.6942 250.238 53.8666 250.087 54.0948 250.085C54.3227 250.082 54.5623 250.229 54.7039 250.458C55.5301 251.825 56.3502 254.01 55.264 256.278C54.2189 258.459 52.0093 259.374 50.044 258.593Z" fill="#E2D3F5"/>
<path d="M237.117 244C235.988 244 235.004 244.822 234.724 246L234.566 246.659H255.423L255.273 246.013C254.997 244.829 254.011 244 252.875 244H237.117ZM234.294 248.432C231.541 248.432 231.074 251.1 231 252.864C231 253.354 231.369 253.75 231.824 253.75H258.176C258.631 253.75 259 253.354 259 252.864C258.925 251.1 258.457 248.432 255.706 248.432H234.294ZM232.851 255.523L235.922 281.267C236.062 282.239 236.927 283 237.892 283H252.109C253.074 283 253.94 282.239 254.083 281.243L255.035 273.25L257.149 255.523H232.851ZM244.923 259.068C244.959 259.063 244.961 259.068 244.979 259.068C247.357 259.068 249.363 260.863 250.261 263.5H250.345H254.537L253.798 269.705H250.375H250.263C250.069 270.285 249.838 270.842 249.537 271.339C248.473 273.096 246.846 274.114 245.076 274.135H245.019C243.272 274.135 241.648 273.158 240.559 271.444C240.226 270.921 239.971 270.327 239.76 269.705H239.665H236.203L235.463 263.5H239.634H239.721C240.595 260.891 242.559 259.097 244.923 259.068ZM244.96 262.614C244.304 262.622 243.678 263.049 243.222 263.803C242.766 264.556 242.515 265.574 242.526 266.632C242.537 267.689 242.808 268.7 243.279 269.443C243.751 270.185 244.384 270.598 245.04 270.591C245.365 270.587 245.686 270.481 245.985 270.277C246.283 270.073 246.553 269.776 246.779 269.403C247.005 269.029 247.183 268.587 247.303 268.102C247.422 267.616 247.481 267.097 247.475 266.573C247.47 266.049 247.401 265.531 247.271 265.049C247.142 264.566 246.955 264.129 246.722 263.761C246.488 263.393 246.212 263.103 245.91 262.906C245.608 262.709 245.285 262.61 244.96 262.614Z" fill="#7E2E84"/>
</svg>
